RopaSans-Regular.ufo
<glyph name="exclam" format="1">
  <advance width="211"/>
  <unicode hex="0021"/>
  <outline>
    <contour>
      <point x="153" y="695" type="line"/>
      <point x="58" y="695" type="line"/>
      <point x="65" y="200" type="line"/>
      <point x="146" y="200" type="line"/>
    </contour>
    <contour>
      <point x="105" y="108" type="curve" smooth="yes"/>
      <point x="70" y="108"/>
      <point x="50" y="92"/>
      <point x="50" y="62" type="curve" smooth="yes"/>
      <point x="50" y="33" type="line" smooth="yes"/>
      <point x="50" y="4"/>
      <point x="70" y="-12"/>
      <point x="105" y="-12" type="curve" smooth="yes"/>
      <point x="141" y="-12"/>
      <point x="161" y="4"/>
      <point x="161" y="33" type="curve" smooth="yes"/>
      <point x="161" y="62" type="line" smooth="yes"/>
      <point x="161" y="92"/>
      <point x="141" y="108"/>
    </contour>
  </outline>
</glyph>
<glyph name="quotedbl" format="1">
  <advance width="315"/>
  <unicode hex="0022"/>
  <outline>
    <contour>
      <point x="270" y="683" type="line"/>
      <point x="185" y="683" type="line"/>
      <point x="185" y="429" type="line"/>
      <point x="270" y="429" type="line"/>
    </contour>
    <contour>
      <point x="130" y="683" type="line"/>
      <point x="45" y="683" type="line"/>
      <point x="45" y="429" type="line"/>
      <point x="130" y="429" type="line"/>
    </contour>
  </outline>
</glyph>
<glyph name="numbersign" format="1">
  <advance width="556"/>
  <unicode hex="0023"/>
  <outline>
    <contour>
      <point x="441" y="613" type="line"/>
      <point x="356" y="613" type="line"/>
      <point x="356" y="488" type="line"/>
      <point x="200" y="488" type="line"/>
      <point x="200" y="613" type="line"/>
      <point x="115" y="613" type="line"/>
      <point x="115" y="488" type="line"/>
      <point x="35" y="488" type="line"/>
      <point x="35" y="418" type="line"/>
      <point x="115" y="418" type="line"/>
      <point x="115" y="195" type="line"/>
      <point x="35" y="195" type="line"/>
      <point x="35" y="125" type="line"/>
      <point x="115" y="125" type="line"/>
      <point x="115" y="0" type="line"/>
      <point x="200" y="0" type="line"/>
      <point x="200" y="125" type="line"/>
      <point x="356" y="125" type="line"/>
      <point x="356" y="0" type="line"/>
      <point x="441" y="0" type="line"/>
      <point x="441" y="125" type="line"/>
      <point x="521" y="125" type="line"/>
      <point x="521" y="195" type="line"/>
      <point x="441" y="195" type="line"/>
      <point x="441" y="418" type="line"/>
      <point x="521" y="418" type="line"/>
      <point x="521" y="488" type="line"/>
      <point x="441" y="488" type="line"/>
    </contour>
    <contour>
      <point x="356" y="418" type="line"/>
      <point x="356" y="195" type="line"/>
      <point x="200" y="195" type="line"/>
      <point x="200" y="418" type="line"/>
    </contour>
  </outline>
</glyph>
<glyph name="percent" format="1">
  <advance width="860"/>
  <unicode hex="0025"/>
  <outline>
    <contour>
      <point x="649" y="613" type="line"/>
      <point x="562" y="613" type="line"/>
      <point x="227" y="0" type="line"/>
      <point x="314" y="0" type="line"/>
    </contour>
    <contour>
      <point x="203" y="625" type="curve" smooth="yes"/>
      <point x="98" y="625"/>
      <point x="45" y="567"/>
      <point x="45" y="465" type="curve" smooth="yes"/>
      <point x="45" y="435" type="line" smooth="yes"/>
      <point x="45" y="333"/>
      <point x="98" y="275"/>
      <point x="203" y="275" type="curve" smooth="yes"/>
      <point x="308" y="275"/>
      <point x="360" y="333"/>
      <point x="360" y="435" type="curve"/>
      <point x="360" y="465" type="line" smooth="yes"/>
      <point x="360" y="567"/>
      <point x="308" y="625"/>
    </contour>
    <contour>
      <point x="203" y="550" type="curve" smooth="yes"/>
      <point x="251" y="550"/>
      <point x="275" y="526"/>
      <point x="275" y="465" type="curve" smooth="yes"/>
      <point x="275" y="435" type="line" smooth="yes"/>
      <point x="275" y="375"/>
      <point x="251" y="350"/>
      <point x="203" y="350" type="curve" smooth="yes"/>
      <point x="154" y="350"/>
      <point x="130" y="375"/>
      <point x="130" y="435" type="curve" smooth="yes"/>
      <point x="130" y="465" type="line" smooth="yes"/>
      <point x="130" y="525"/>
      <point x="155" y="550"/>
    </contour>
    <contour>
      <point x="673" y="338" type="curve" smooth="yes"/>
      <point x="568" y="338"/>
      <point x="515" y="280"/>
      <point x="515" y="178" type="curve" smooth="yes"/>
      <point x="515" y="148" type="line" smooth="yes"/>
      <point x="515" y="46"/>
      <point x="568" y="-12"/>
      <point x="673" y="-12" type="curve" smooth="yes"/>
      <point x="778" y="-12"/>
      <point x="830" y="46"/>
      <point x="830" y="148" type="curve"/>
      <point x="830" y="178" type="line" smooth="yes"/>
      <point x="830" y="280"/>
      <point x="778" y="338"/>
    </contour>
    <contour>
      <point x="673" y="263" type="curve" smooth="yes"/>
      <point x="721" y="263"/>
      <point x="745" y="239"/>
      <point x="745" y="178" type="curve" smooth="yes"/>
      <point x="745" y="148" type="line" smooth="yes"/>
      <point x="745" y="88"/>
      <point x="721" y="63"/>
      <point x="673" y="63" type="curve" smooth="yes"/>
      <point x="624" y="63"/>
      <point x="600" y="88"/>
      <point x="600" y="148" type="curve" smooth="yes"/>
      <point x="600" y="178" type="line" smooth="yes"/>
      <point x="600" y="238"/>
      <point x="625" y="263"/>
    </contour>
  </outline>
</glyph>
<glyph name="quotesingle" format="1">
  <advance width="175"/>
  <unicode hex="0027"/>
  <outline>
    <contour>
      <point x="130" y="683" type="line"/>
      <point x="45" y="683" type="line"/>
      <point x="45" y="429" type="line"/>
      <point x="130" y="429" type="line"/>
    </contour>
  </outline>
</glyph>
<glyph name="parenleft" format="1">
  <advance width="231"/>
  <unicode hex="0028"/>
  <outline>
    <contour>
      <point x="241" y="742" type="line"/>
      <point x="99" y="742"/>
      <point x="70" y="705"/>
      <point x="70" y="558" type="curve" smooth="yes"/>
      <point x="70" y="83" type="line" smooth="yes"/>
      <point x="70" y="-64"/>
      <point x="99" y="-101"/>
      <point x="241" y="-101" type="curve"/>
      <point x="241" y="-31" type="line"/>
      <point x="163" y="-27"/>
      <point x="155" y="-12"/>
      <point x="155" y="59" type="curve" smooth="yes"/>
      <point x="155" y="582" type="line" smooth="yes"/>
      <point x="155" y="656"/>
      <point x="166" y="667"/>
      <point x="241" y="672" type="curve"/>
    </contour>
  </outline>
</glyph>
<glyph name="asterisk" format="1">
  <advance width="410"/>
  <unicode hex="002A"/>
  <outline>
    <contour>
      <point x="239" y="695" type="line"/>
      <point x="170" y="695" type="line"/>
      <point x="180" y="584" type="line"/>
      <point x="78" y="627" type="line"/>
      <point x="55" y="561" type="line"/>
      <point x="165" y="537" type="line"/>
      <point x="91" y="452" type="line"/>
      <point x="147" y="410" type="line"/>
      <point x="204" y="507" type="line"/>
      <point x="261" y="411" type="line"/>
      <point x="318" y="452" type="line"/>
      <point x="244" y="536" type="line"/>
      <point x="355" y="561" type="line"/>
      <point x="332" y="627" type="line"/>
      <point x="229" y="583" type="line"/>
    </contour>
  </outline>
</glyph>
<glyph name="plus" format="1">
  <advance width="390"/>
  <unicode hex="002B"/>
  <outline>
    <contour>
      <point x="233" y="488" type="line"/>
      <point x="157" y="488" type="line"/>
      <point x="157" y="336" type="line"/>
      <point x="17" y="336" type="line"/>
      <point x="17" y="265" type="line"/>
      <point x="157" y="265" type="line"/>
      <point x="157" y="113" type="line"/>
      <point x="233" y="113" type="line"/>
      <point x="233" y="265" type="line"/>
      <point x="373" y="265" type="line"/>
      <point x="373" y="336" type="line"/>
      <point x="233" y="336" type="line"/>
    </contour>
  </outline>
</glyph>
<glyph name="hyphen" format="1">
  <advance width="350"/>
  <unicode hex="002D"/>
  <outline>
    <contour>
      <point x="285" y="328" type="line"/>
      <point x="65" y="328" type="line"/>
      <point x="65" y="263" type="line"/>
      <point x="285" y="263" type="line"/>
    </contour>
  </outline>
</glyph>
<glyph name="one" format="1">
  <advance width="312"/>
  <unicode hex="0031"/>
  <outline>
    <contour>
      <point x="237" y="601" type="line"/>
      <point x="162" y="601" type="line"/>
      <point x="0" y="535" type="line"/>
      <point x="17" y="462" type="line"/>
      <point x="150" y="519" type="line"/>
      <point x="152" y="519" type="line"/>
      <point x="152" y="0" type="line"/>
      <point x="237" y="0" type="line"/>
    </contour>
  </outline>
</glyph>
<glyph name="three" format="1">
  <advance width="389"/>
  <unicode hex="0033"/>
  <outline>
    <contour>
      <point x="156" y="613" type="curve" smooth="yes"/>
      <point x="121" y="613"/>
      <point x="74" y="607"/>
      <point x="30" y="600" type="curve"/>
      <point x="30" y="529" type="line"/>
      <point x="65" y="535"/>
      <point x="117" y="543"/>
      <point x="156" y="543" type="curve" smooth="yes"/>
      <point x="215" y="543"/>
      <point x="246" y="516"/>
      <point x="246" y="462" type="curve" smooth="yes"/>
      <point x="246" y="443" type="line" smooth="yes"/>
      <point x="246" y="374"/>
      <point x="217" y="344"/>
      <point x="154" y="344" type="curve" smooth="yes"/>
      <point x="65" y="344" type="line"/>
      <point x="65" y="276" type="line"/>
      <point x="154" y="276" type="line" smooth="yes"/>
      <point x="223" y="276"/>
      <point x="259" y="242"/>
      <point x="259" y="174" type="curve" smooth="yes"/>
      <point x="259" y="158" type="line" smooth="yes"/>
      <point x="259" y="97"/>
      <point x="223" y="59"/>
      <point x="159" y="59" type="curve" smooth="yes"/>
      <point x="120" y="59"/>
      <point x="65" y="66"/>
      <point x="30" y="72" type="curve"/>
      <point x="30" y="1" type="line"/>
      <point x="74" y="-6"/>
      <point x="124" y="-12"/>
      <point x="159" y="-12" type="curve" smooth="yes"/>
      <point x="282" y="-12"/>
      <point x="344" y="61"/>
      <point x="344" y="163" type="curve" smooth="yes"/>
      <point x="344" y="173" type="line" smooth="yes"/>
      <point x="344" y="237"/>
      <point x="309" y="291"/>
      <point x="254" y="314" type="curve"/>
      <point x="306" y="339"/>
      <point x="331" y="386"/>
      <point x="331" y="447" type="curve" smooth="yes"/>
      <point x="331" y="457" type="line" smooth="yes"/>
      <point x="331" y="555"/>
      <point x="270" y="613"/>
    </contour>
  </outline>
</glyph>
<glyph name="four" format="1">
  <advance width="421"/>
  <unicode hex="0034"/>
  <outline>
    <contour>
      <point x="350" y="601" type="line"/>
      <point x="253" y="601" type="line"/>
      <point x="-5" y="188" type="line"/>
      <point x="-5" y="129" type="line"/>
      <point x="267" y="129" type="line"/>
      <point x="267" y="0" type="line"/>
      <point x="350" y="0" type="line"/>
      <point x="350" y="129" type="line"/>
      <point x="411" y="129" type="line"/>
      <point x="411" y="199" type="line"/>
      <point x="350" y="199" type="line"/>
    </contour>
    <contour>
      <point x="268" y="504" type="line"/>
      <point x="268" y="213" type="line"/>
      <point x="268" y="199" type="line"/>
      <point x="86" y="199" type="line"/>
    </contour>
  </outline>
</glyph>
<glyph name="eight" format="1">
  <advance width="460"/>
  <unicode hex="0038"/>
  <outline>
    <contour>
      <point x="230" y="613" type="curve" smooth="yes"/>
      <point x="125" y="613"/>
      <point x="59" y="556"/>
      <point x="59" y="455" type="curve" smooth="yes"/>
      <point x="59" y="450" type="line" smooth="yes"/>
      <point x="59" y="392"/>
      <point x="81" y="346"/>
      <point x="124" y="321" type="curve"/>
      <point x="65" y="295"/>
      <point x="35" y="246"/>
      <point x="35" y="178" type="curve" smooth="yes"/>
      <point x="35" y="163" type="line" smooth="yes"/>
      <point x="35" y="53"/>
      <point x="104" y="-12"/>
      <point x="230" y="-12" type="curve" smooth="yes"/>
      <point x="357" y="-12"/>
      <point x="425" y="54"/>
      <point x="425" y="163" type="curve"/>
      <point x="425" y="178" type="line" smooth="yes"/>
      <point x="425" y="247"/>
      <point x="393" y="295"/>
      <point x="336" y="321" type="curve"/>
      <point x="379" y="346"/>
      <point x="401" y="392"/>
      <point x="401" y="450" type="curve" smooth="yes"/>
      <point x="401" y="455" type="line" smooth="yes"/>
      <point x="401" y="557"/>
      <point x="335" y="613"/>
    </contour>
    <contour>
      <point x="230" y="287" type="curve" smooth="yes"/>
      <point x="298" y="287"/>
      <point x="340" y="249"/>
      <point x="340" y="180" type="curve" smooth="yes"/>
      <point x="340" y="155" type="line" smooth="yes"/>
      <point x="340" y="98"/>
      <point x="302" y="59"/>
      <point x="230" y="59" type="curve" smooth="yes"/>
      <point x="158" y="59"/>
      <point x="120" y="98"/>
      <point x="120" y="155" type="curve" smooth="yes"/>
      <point x="120" y="180" type="line" smooth="yes"/>
      <point x="120" y="248"/>
      <point x="161" y="287"/>
    </contour>
    <contour>
      <point x="230" y="547" type="curve" smooth="yes"/>
      <point x="289" y="547"/>
      <point x="318" y="520"/>
      <point x="318" y="460" type="curve" smooth="yes"/>
      <point x="318" y="441" type="line" smooth="yes"/>
      <point x="318" y="379"/>
      <point x="295" y="353"/>
      <point x="230" y="353" type="curve" smooth="yes"/>
      <point x="166" y="353"/>
      <point x="142" y="379"/>
      <point x="142" y="441" type="curve" smooth="yes"/>
      <point x="142" y="460" type="line" smooth="yes"/>
      <point x="142" y="517"/>
      <point x="169" y="547"/>
    </contour>
  </outline>
</glyph>
<glyph name="nine" format="1">
  <advance width="475"/>
  <unicode hex="0039"/>
  <outline>
    <contour>
      <point x="231" y="613" type="curve" smooth="yes"/>
      <point x="108" y="613"/>
      <point x="45" y="546"/>
      <point x="45" y="427" type="curve" smooth="yes"/>
      <point x="45" y="388" type="line" smooth="yes"/>
      <point x="45" y="270"/>
      <point x="101" y="211"/>
      <point x="194" y="211" type="curve" smooth="yes"/>
      <point x="238" y="211"/>
      <point x="284" y="234"/>
      <point x="330" y="278" type="curve"/>
      <point x="330" y="202" type="line" smooth="yes"/>
      <point x="330" y="99"/>
      <point x="291" y="59"/>
      <point x="211" y="59" type="curve" smooth="yes"/>
      <point x="183" y="59"/>
      <point x="114" y="69"/>
      <point x="82" y="75" type="curve"/>
      <point x="82" y="4" type="line"/>
      <point x="104" y="-1"/>
      <point x="167" y="-12"/>
      <point x="211" y="-12" type="curve" smooth="yes"/>
      <point x="346" y="-12"/>
      <point x="415" y="54"/>
      <point x="415" y="208" type="curve"/>
      <point x="415" y="422" type="line" smooth="yes"/>
      <point x="415" y="546"/>
      <point x="351" y="613"/>
    </contour>
    <contour>
      <point x="231" y="541" type="curve" smooth="yes"/>
      <point x="296" y="541"/>
      <point x="330" y="503"/>
      <point x="330" y="427" type="curve" smooth="yes"/>
      <point x="330" y="350" type="line"/>
      <point x="292" y="315"/>
      <point x="249" y="285"/>
      <point x="211" y="285" type="curve" smooth="yes"/>
      <point x="160" y="285"/>
      <point x="130" y="319"/>
      <point x="130" y="385" type="curve" smooth="yes"/>
      <point x="130" y="432" type="line" smooth="yes"/>
      <point x="130" y="504"/>
      <point x="164" y="541"/>
    </contour>
  </outline>
</glyph>
<glyph name="less" format="1">
  <advance width="390"/>
  <unicode hex="003C"/>
  <outline>
    <contour>
      <point x="375" y="494" type="line"/>
      <point x="15" y="334" type="line"/>
      <point x="15" y="259" type="line"/>
      <point x="375" y="99" type="line"/>
      <point x="375" y="182" type="line"/>
      <point x="99" y="297" type="line"/>
      <point x="375" y="411" type="line"/>
    </contour>
  </outline>
</glyph>
<glyph name="equal" format="1">
  <advance width="420"/>
  <unicode hex="003D"/>
  <outline>
    <contour>
      <point x="387" y="421" type="line"/>
      <point x="33" y="421" type="line"/>
      <point x="33" y="351" type="line"/>
      <point x="387" y="351" type="line"/>
    </contour>
    <contour>
      <point x="387" y="250" type="line"/>
      <point x="33" y="250" type="line"/>
      <point x="33" y="180" type="line"/>
      <point x="387" y="180" type="line"/>
    </contour>
  </outline>
</glyph>
<glyph name="greater" format="1">
  <advance width="390"/>
  <unicode hex="003E"/>
  <outline>
    <contour>
      <point x="15" y="494" type="line"/>
      <point x="15" y="411" type="line"/>
      <point x="291" y="297" type="line"/>
      <point x="15" y="182" type="line"/>
      <point x="15" y="99" type="line"/>
      <point x="375" y="259" type="line"/>
      <point x="375" y="334" type="line"/>
    </contour>
  </outline>
</glyph>
<glyph name="at" format="1">
  <advance width="930"/>
  <unicode hex="0040"/>
  <outline>
    <contour>
      <point x="455" y="695" type="curve" smooth="yes"/>
      <point x="182" y="695"/>
      <point x="60" y="527"/>
      <point x="60" y="288" type="curve" smooth="yes"/>
      <point x="60" y="188" type="line" smooth="yes"/>
      <point x="60" y="-54"/>
      <point x="185" y="-185"/>
      <point x="455" y="-185" type="curve" smooth="yes"/>
      <point x="590" y="-185" type="line"/>
      <point x="590" y="-109" type="line"/>
      <point x="455" y="-109" type="line" smooth="yes"/>
      <point x="249" y="-109"/>
      <point x="145" y="-6"/>
      <point x="145" y="188" type="curve" smooth="yes"/>
      <point x="145" y="288" type="line" smooth="yes"/>
      <point x="145" y="501"/>
      <point x="260" y="619"/>
      <point x="455" y="619" type="curve" smooth="yes"/>
      <point x="675" y="619"/>
      <point x="785" y="515"/>
      <point x="785" y="318" type="curve" smooth="yes"/>
      <point x="785" y="268" type="line" smooth="yes"/>
      <point x="785" y="164"/>
      <point x="728" y="90"/>
      <point x="658" y="90" type="curve" smooth="yes"/>
      <point x="613" y="90"/>
      <point x="606" y="116"/>
      <point x="608" y="155" type="curve"/>
      <point x="649" y="475" type="line"/>
      <point x="569" y="475" type="line"/>
      <point x="564" y="434" type="line"/>
      <point x="537" y="461"/>
      <point x="488" y="488"/>
      <point x="442" y="488" type="curve" smooth="yes"/>
      <point x="356" y="488"/>
      <point x="298" y="429"/>
      <point x="284" y="320" type="curve" smooth="yes"/>
      <point x="266" y="182" type="line" smooth="yes"/>
      <point x="252" y="76"/>
      <point x="292" y="15"/>
      <point x="377" y="15" type="curve" smooth="yes"/>
      <point x="427" y="15"/>
      <point x="484" y="52"/>
      <point x="531" y="109" type="curve"/>
      <point x="539" y="50"/>
      <point x="582" y="15"/>
      <point x="657" y="15" type="curve" smooth="yes"/>
      <point x="790" y="15"/>
      <point x="870" y="121"/>
      <point x="870" y="268" type="curve" smooth="yes"/>
      <point x="870" y="318" type="line" smooth="yes"/>
      <point x="870" y="566"/>
      <point x="738" y="695"/>
    </contour>
    <contour>
      <point x="455" y="412" type="curve" smooth="yes"/>
      <point x="486" y="412"/>
      <point x="525" y="392"/>
      <point x="549" y="363" type="curve"/>
      <point x="527" y="182" type="line"/>
      <point x="488" y="123"/>
      <point x="442" y="91"/>
      <point x="403" y="91" type="curve" smooth="yes"/>
      <point x="364" y="91"/>
      <point x="342" y="120"/>
      <point x="352" y="193" type="curve" smooth="yes"/>
      <point x="367" y="308" type="line" smooth="yes"/>
      <point x="377" y="381"/>
      <point x="410" y="412"/>
    </contour>
  </outline>
</glyph>
<glyph name="B" format="1">
  <advance width="528"/>
  <unicode hex="0042"/>
  <outline>
    <contour>
      <point x="251" y="667" type="curve" smooth="yes"/>
      <point x="180" y="667"/>
      <point x="121" y="665"/>
      <point x="75" y="663" type="curve"/>
      <point x="75" y="-6" type="line"/>
      <point x="172" y="-11"/>
      <point x="197" y="-12"/>
      <point x="258" y="-12" type="curve" smooth="yes"/>
      <point x="421" y="-12"/>
      <point x="493" y="64"/>
      <point x="493" y="169" type="curve" smooth="yes"/>
      <point x="493" y="191" type="line" smooth="yes"/>
      <point x="493" y="269"/>
      <point x="448" y="324"/>
      <point x="374" y="340" type="curve"/>
      <point x="438" y="368"/>
      <point x="466" y="419"/>
      <point x="466" y="485" type="curve" smooth="yes"/>
      <point x="466" y="507" type="line" smooth="yes"/>
      <point x="466" y="602"/>
      <point x="395" y="667"/>
    </contour>
    <contour>
      <point x="264" y="298" type="line"/>
      <point x="365" y="298"/>
      <point x="408" y="261"/>
      <point x="408" y="195" type="curve" smooth="yes"/>
      <point x="408" y="174" type="line" smooth="yes"/>
      <point x="408" y="107"/>
      <point x="364" y="62"/>
      <point x="258" y="62" type="curve" smooth="yes"/>
      <point x="224" y="62"/>
      <point x="214" y="63"/>
      <point x="160" y="68" type="curve"/>
      <point x="160" y="298" type="line"/>
    </contour>
    <contour>
      <point x="238" y="594" type="curve" smooth="yes"/>
      <point x="341" y="594"/>
      <point x="381" y="558"/>
      <point x="381" y="494" type="curve" smooth="yes"/>
      <point x="381" y="477" type="line" smooth="yes"/>
      <point x="381" y="408"/>
      <point x="339" y="367"/>
      <point x="258" y="367" type="curve" smooth="yes"/>
      <point x="160" y="367" type="line"/>
      <point x="160" y="591" type="line"/>
      <point x="188" y="593"/>
      <point x="214" y="594"/>
    </contour>
  </outline>
</glyph>
<glyph name="D" format="1">
  <advance width="571"/>
  <unicode hex="0044"/>
  <outline>
    <contour>
      <point x="286" y="328" type="move" name="center"/>
    </contour>
    <contour>
      <point x="261" y="655" type="move" name="top"/>
    </contour>
    <contour>
      <point x="258" y="667" type="curve" smooth="yes"/>
      <point x="181" y="667"/>
      <point x="120" y="665"/>
      <point x="75" y="663" type="curve"/>
      <point x="75" y="-6" type="line"/>
      <point x="137" y="-10"/>
      <point x="186" y="-12"/>
      <point x="253" y="-12" type="curve" smooth="yes"/>
      <point x="420" y="-12"/>
      <point x="506" y="79"/>
      <point x="506" y="241" type="curve" smooth="yes"/>
      <point x="506" y="405" type="line" smooth="yes"/>
      <point x="506" y="575"/>
      <point x="416" y="667"/>
    </contour>
    <contour>
      <point x="253" y="595" type="curve" smooth="yes"/>
      <point x="357" y="595"/>
      <point x="421" y="534"/>
      <point x="421" y="411" type="curve" smooth="yes"/>
      <point x="421" y="234" type="line" smooth="yes"/>
      <point x="421" y="120"/>
      <point x="353" y="61"/>
      <point x="253" y="61" type="curve" smooth="yes"/>
      <point x="228" y="61"/>
      <point x="199" y="63"/>
      <point x="160" y="67" type="curve"/>
      <point x="160" y="593" type="line"/>
      <point x="191" y="594"/>
      <point x="221" y="595"/>
    </contour>
  </outline>
</glyph>
<glyph name="E" format="1">
  <advance width="485"/>
  <unicode hex="0045"/>
  <outline>
    <contour>
      <point x="243" y="0" type="move" name="bottom"/>
    </contour>
    <contour>
      <point x="436" y="10" type="move" name="ogonek"/>
    </contour>
    <contour>
      <point x="253" y="655" type="move" name="top"/>
    </contour>
    <contour>
      <point x="35" y="655" type="move" name="topleft"/>
    </contour>
    <contour>
      <point x="420" y="655" type="line"/>
      <point x="75" y="655" type="line"/>
      <point x="75" y="0" type="line"/>
      <point x="420" y="0" type="line"/>
      <point x="420" y="77" type="line"/>
      <point x="160" y="77" type="line"/>
      <point x="160" y="295" type="line"/>
      <point x="400" y="295" type="line"/>
      <point x="400" y="371" type="line"/>
      <point x="160" y="371" type="line"/>
      <point x="160" y="578" type="line"/>
      <point x="420" y="578" type="line"/>
    </contour>
  </outline>
</glyph>
<glyph name="F" format="1">
  <advance width="460"/>
  <unicode hex="0046"/>
  <outline>
    <contour>
      <point x="420" y="655" type="line"/>
      <point x="75" y="655" type="line"/>
      <point x="75" y="0" type="line"/>
      <point x="160" y="0" type="line"/>
      <point x="160" y="295" type="line"/>
      <point x="356" y="295" type="line"/>
      <point x="356" y="371" type="line"/>
      <point x="160" y="371" type="line"/>
      <point x="160" y="578" type="line"/>
      <point x="420" y="578" type="line"/>
    </contour>
  </outline>
</glyph>
<glyph name="H" format="1">
  <advance width="580"/>
  <unicode hex="0048"/>
  <outline>
    <contour>
      <point x="290" y="328" type="move" name="center"/>
    </contour>
    <contour>
      <point x="290" y="655" type="move" name="top"/>
    </contour>
    <contour>
      <point x="35" y="655" type="move" name="topleft"/>
    </contour>
    <contour>
      <point x="505" y="655" type="line"/>
      <point x="420" y="655" type="line"/>
      <point x="420" y="376" type="line"/>
      <point x="160" y="376" type="line"/>
      <point x="160" y="655" type="line"/>
      <point x="75" y="655" type="line"/>
      <point x="75" y="0" type="line"/>
      <point x="160" y="0" type="line"/>
      <point x="160" y="300" type="line"/>
      <point x="420" y="300" type="line"/>
      <point x="420" y="0" type="line"/>
      <point x="505" y="0" type="line"/>
    </contour>
  </outline>
</glyph>
<glyph name="J" format="1">
  <advance width="287"/>
  <unicode hex="004A"/>
  <outline>
    <contour>
      <point x="170" y="655" type="move" name="top"/>
    </contour>
    <contour>
      <point x="212" y="655" type="line"/>
      <point x="127" y="655" type="line"/>
      <point x="127" y="132" type="line" smooth="yes"/>
      <point x="127" y="80"/>
      <point x="104" y="61"/>
      <point x="63" y="61" type="curve" smooth="yes"/>
      <point x="38" y="61"/>
      <point x="6" y="64"/>
      <point x="-5" y="66" type="curve"/>
      <point x="-5" y="-5" type="line"/>
      <point x="4" y="-8"/>
      <point x="37" y="-12"/>
      <point x="59" y="-12" type="curve" smooth="yes"/>
      <point x="166" y="-12"/>
      <point x="212" y="37"/>
      <point x="212" y="139" type="curve" smooth="yes"/>
    </contour>
  </outline>
</glyph>
<glyph name="K" format="1">
  <advance width="525"/>
  <unicode hex="004B"/>
  <outline>
    <contour>
      <point x="279" y="0" type="move" name="bottom"/>
    </contour>
    <contour>
      <point x="263" y="655" type="move" name="top"/>
    </contour>
    <contour>
      <point x="499" y="655" type="line"/>
      <point x="404" y="655" type="line"/>
      <point x="160" y="339" type="line"/>
      <point x="160" y="655" type="line"/>
      <point x="75" y="655" type="line"/>
      <point x="75" y="0" type="line"/>
      <point x="160" y="0" type="line"/>
      <point x="160" y="321" type="line"/>
      <point x="416" y="0" type="line"/>
      <point x="525" y="0" type="line"/>
      <point x="248" y="338" type="line"/>
    </contour>
  </outline>
</glyph>
<glyph name="N" format="1">
  <advance width="582"/>
  <unicode hex="004E"/>
  <outline>
    <contour>
      <point x="304" y="0" type="move" name="bottom"/>
    </contour>
    <contour>
      <point x="296" y="655" type="move" name="top"/>
    </contour>
    <contour>
      <point x="375" y="0" type="line"/>
      <point x="507" y="0" type="line"/>
      <point x="507" y="655" type="line"/>
      <point x="423" y="655" type="line"/>
      <point x="423" y="102" type="line"/>
      <point x="211" y="655" type="line"/>
      <point x="75" y="655" type="line"/>
      <point x="75" y="0" type="line"/>
      <point x="159" y="0" type="line"/>
      <point x="159" y="553" type="line"/>
    </contour>
  </outline>
</glyph>
<glyph name="Q" format="1">
  <advance width="576"/>
  <unicode hex="0051"/>
  <outline>
    <contour>
      <point x="288" y="667" type="curve" smooth="yes"/>
      <point x="133" y="667"/>
      <point x="70" y="584"/>
      <point x="70" y="452" type="curve" smooth="yes"/>
      <point x="70" y="203" type="line" smooth="yes"/>
      <point x="70" y="71"/>
      <point x="133" y="-12"/>
      <point x="289" y="-12" type="curve" smooth="yes"/>
      <point x="298" y="-12"/>
      <point x="306" y="-12"/>
      <point x="313" y="-11" type="curve"/>
      <point x="509" y="-85" type="line"/>
      <point x="528" y="-85" type="line"/>
      <point x="526" y="-6" type="line"/>
      <point x="411" y="24" type="line"/>
      <point x="473" y="57"/>
      <point x="506" y="114"/>
      <point x="506" y="203" type="curve" smooth="yes"/>
      <point x="506" y="452" type="line" smooth="yes"/>
      <point x="506" y="584"/>
      <point x="443" y="667"/>
    </contour>
    <contour>
      <point x="288" y="592" type="curve" smooth="yes"/>
      <point x="377" y="592"/>
      <point x="421" y="545"/>
      <point x="421" y="461" type="curve" smooth="yes"/>
      <point x="421" y="196" type="line" smooth="yes"/>
      <point x="421" y="108"/>
      <point x="379" y="63"/>
      <point x="289" y="63" type="curve" smooth="yes"/>
      <point x="200" y="63"/>
      <point x="155" y="109"/>
      <point x="155" y="194" type="curve" smooth="yes"/>
      <point x="155" y="462" type="line" smooth="yes"/>
      <point x="155" y="546"/>
      <point x="199" y="592"/>
    </contour>
  </outline>
</glyph>
<glyph name="R" format="1">
  <advance width="540"/>
  <unicode hex="0052"/>
  <outline>
    <contour>
      <point x="284" y="0" type="move" name="bottom"/>
    </contour>
    <contour>
      <point x="258" y="655" type="move" name="top"/>
    </contour>
    <contour>
      <point x="249" y="667" type="curve" smooth="yes"/>
      <point x="192" y="667"/>
      <point x="131" y="665"/>
      <point x="75" y="663" type="curve"/>
      <point x="75" y="0" type="line"/>
      <point x="160" y="0" type="line"/>
      <point x="160" y="286" type="line"/>
      <point x="200" y="283"/>
      <point x="249" y="282"/>
      <point x="271" y="284" type="curve"/>
      <point x="430" y="0" type="line"/>
      <point x="525" y="0" type="line"/>
      <point x="355" y="302" type="line"/>
      <point x="438" y="327"/>
      <point x="479" y="393"/>
      <point x="479" y="467" type="curve" smooth="yes"/>
      <point x="479" y="492" type="line" smooth="yes"/>
      <point x="479" y="598"/>
      <point x="412" y="667"/>
    </contour>
    <contour>
      <point x="247" y="595" type="curve" smooth="yes"/>
      <point x="352" y="595"/>
      <point x="394" y="559"/>
      <point x="394" y="489" type="curve" smooth="yes"/>
      <point x="394" y="469" type="line" smooth="yes"/>
      <point x="394" y="397"/>
      <point x="352" y="352"/>
      <point x="250" y="352" type="curve" smooth="yes"/>
      <point x="222" y="352"/>
      <point x="203" y="353"/>
      <point x="160" y="357" type="curve"/>
      <point x="160" y="593" type="line"/>
      <point x="187" y="594"/>
      <point x="225" y="595"/>
    </contour>
  </outline>
</glyph>
<glyph name="T" format="1">
  <advance width="525"/>
  <unicode hex="0054"/>
  <outline>
    <contour>
      <point x="263" y="0" type="move" name="bottom"/>
    </contour>
    <contour>
      <point x="263" y="328" type="move" name="center"/>
    </contour>
    <contour>
      <point x="263" y="655" type="move" name="top"/>
    </contour>
    <contour>
      <point x="495" y="655" type="line"/>
      <point x="30" y="655" type="line"/>
      <point x="30" y="578" type="line"/>
      <point x="220" y="578" type="line"/>
      <point x="220" y="0" type="line"/>
      <point x="305" y="0" type="line"/>
      <point x="305" y="578" type="line"/>
      <point x="495" y="578" type="line"/>
    </contour>
  </outline>
</glyph>
<glyph name="U" format="1">
  <advance width="576"/>
  <unicode hex="0055"/>
  <outline>
    <contour>
      <point x="518" y="10" type="move" name="ogonek"/>
    </contour>
    <contour>
      <point x="288" y="655" type="move" name="top"/>
    </contour>
    <contour>
      <point x="501" y="655" type="line"/>
      <point x="416" y="655" type="line"/>
      <point x="416" y="194" type="line" smooth="yes"/>
      <point x="416" y="107"/>
      <point x="369" y="63"/>
      <point x="288" y="63" type="curve" smooth="yes"/>
      <point x="207" y="63"/>
      <point x="160" y="107"/>
      <point x="160" y="194" type="curve" smooth="yes"/>
      <point x="160" y="655" type="line"/>
      <point x="75" y="655" type="line"/>
      <point x="75" y="205" type="line" smooth="yes"/>
      <point x="75" y="61"/>
      <point x="150" y="-12"/>
      <point x="288" y="-12" type="curve" smooth="yes"/>
      <point x="430" y="-12"/>
      <point x="501" y="67"/>
      <point x="501" y="207" type="curve" smooth="yes"/>
    </contour>
  </outline>
</glyph>
<glyph name="V" format="1">
  <advance width="526"/>
  <unicode hex="0056"/>
  <outline>
    <contour>
      <point x="513" y="655" type="line"/>
      <point x="423" y="655" type="line"/>
      <point x="260" y="82" type="line"/>
      <point x="103" y="655" type="line"/>
      <point x="13" y="655" type="line"/>
      <point x="204" y="0" type="line"/>
      <point x="316" y="0" type="line"/>
    </contour>
  </outline>
</glyph>
<glyph name="W" format="1">
  <advance width="848"/>
  <unicode hex="0057"/>
  <outline>
    <contour>
      <point x="424" y="655" type="move" name="top"/>
    </contour>
    <contour>
      <point x="823" y="655" type="line"/>
      <point x="733" y="655" type="line"/>
      <point x="612" y="93" type="line"/>
      <point x="482" y="655" type="line"/>
      <point x="366" y="655" type="line"/>
      <point x="237" y="93" type="line"/>
      <point x="115" y="655" type="line"/>
      <point x="25" y="655" type="line"/>
      <point x="177" y="0" type="line"/>
      <point x="291" y="0" type="line"/>
      <point x="424" y="558" type="line"/>
      <point x="558" y="0" type="line"/>
      <point x="672" y="0" type="line"/>
    </contour>
  </outline>
</glyph>
<glyph name="X" format="1">
  <advance width="519"/>
  <unicode hex="0058"/>
  <outline>
    <contour>
      <point x="495" y="655" type="line"/>
      <point x="401" y="655" type="line"/>
      <point x="264" y="405" type="line"/>
      <point x="127" y="655" type="line"/>
      <point x="25" y="655" type="line"/>
      <point x="205" y="338" type="line"/>
      <point x="13" y="0" type="line"/>
      <point x="111" y="0" type="line"/>
      <point x="257" y="268" type="line"/>
      <point x="403" y="0" type="line"/>
      <point x="506" y="0" type="line"/>
      <point x="317" y="336" type="line"/>
    </contour>
  </outline>
</glyph>
<glyph name="Y" format="1">
  <advance width="491"/>
  <unicode hex="0059"/>
  <outline>
    <contour>
      <point x="246" y="655" type="move" name="top"/>
    </contour>
    <contour>
      <point x="-10" y="655" type="move" name="topleft"/>
    </contour>
    <contour>
      <point x="478" y="655" type="line"/>
      <point x="383" y="655" type="line"/>
      <point x="246" y="315" type="line"/>
      <point x="110" y="655" type="line"/>
      <point x="13" y="655" type="line"/>
      <point x="203" y="225" type="line"/>
      <point x="203" y="0" type="line"/>
      <point x="288" y="0" type="line"/>
      <point x="288" y="225" type="line"/>
    </contour>
  </outline>
</glyph>
<glyph name="Z" format="1">
  <advance width="480"/>
  <unicode hex="005A"/>
  <outline>
    <contour>
      <point x="239" y="655" type="move" name="top"/>
    </contour>
    <contour>
      <point x="435" y="655" type="line"/>
      <point x="46" y="655" type="line"/>
      <point x="46" y="578" type="line"/>
      <point x="336" y="578" type="line"/>
      <point x="40" y="67" type="line"/>
      <point x="40" y="0" type="line"/>
      <point x="435" y="0" type="line"/>
      <point x="435" y="77" type="line"/>
      <point x="139" y="77" type="line"/>
      <point x="435" y="588" type="line"/>
    </contour>
  </outline>
</glyph>
<glyph name="bracketleft" format="1">
  <advance width="260"/>
  <unicode hex="005B"/>
  <outline>
    <contour>
      <point x="275" y="747" type="line"/>
      <point x="70" y="747" type="line"/>
      <point x="70" y="-92" type="line"/>
      <point x="275" y="-92" type="line"/>
      <point x="275" y="-22" type="line"/>
      <point x="155" y="-22" type="line"/>
      <point x="155" y="677" type="line"/>
      <point x="275" y="677" type="line"/>
    </contour>
  </outline>
</glyph>
<glyph name="backslash" format="1">
  <advance width="255"/>
  <unicode hex="005C"/>
  <outline>
    <contour>
      <point x="68" y="683" type="line"/>
      <point x="-17" y="683" type="line"/>
      <point x="188" y="0" type="line"/>
      <point x="273" y="0" type="line"/>
    </contour>
  </outline>
</glyph>
<glyph name="bracketright" format="1">
  <advance width="260"/>
  <unicode hex="005D"/>
  <outline>
    <contour>
      <point x="190" y="747" type="line"/>
      <point x="-15" y="747" type="line"/>
      <point x="-15" y="677" type="line"/>
      <point x="105" y="677" type="line"/>
      <point x="105" y="-22" type="line"/>
      <point x="-15" y="-22" type="line"/>
      <point x="-15" y="-92" type="line"/>
      <point x="190" y="-92" type="line"/>
    </contour>
  </outline>
</glyph>
<glyph name="asciicircum" format="1">
  <advance width="495"/>
  <unicode hex="005E"/>
  <outline>
    <contour>
      <point x="285" y="683" type="line"/>
      <point x="210" y="683" type="line"/>
      <point x="65" y="403" type="line"/>
      <point x="148" y="403" type="line"/>
      <point x="247" y="604" type="line"/>
      <point x="347" y="403" type="line"/>
      <point x="430" y="403" type="line"/>
    </contour>
  </outline>
</glyph>
<glyph name="underscore" format="1">
  <advance width="610"/>
  <unicode hex="005F"/>
  <outline>
    <contour>
      <point x="545" y="-120" type="line"/>
      <point x="65" y="-120" type="line"/>
      <point x="65" y="-185" type="line"/>
      <point x="545" y="-185" type="line"/>
    </contour>
  </outline>
</glyph>
<glyph name="e" format="1">
  <advance width="447"/>
  <unicode hex="0065"/>
  <outline>
    <contour>
      <point x="224" y="0" type="move" name="bottom"/>
    </contour>
    <contour>
      <point x="402" y="10" type="move" name="ogonek"/>
    </contour>
    <contour>
      <point x="227" y="488" type="move" name="top"/>
    </contour>
    <contour>
      <point x="230" y="500" type="curve" smooth="yes"/>
      <point x="115" y="500"/>
      <point x="60" y="436"/>
      <point x="60" y="321" type="curve" smooth="yes"/>
      <point x="60" y="164" type="line" smooth="yes"/>
      <point x="60" y="46"/>
      <point x="111" y="-12"/>
      <point x="246" y="-12" type="curve" smooth="yes"/>
      <point x="284" y="-12"/>
      <point x="335" y="-3"/>
      <point x="379" y="5" type="curve"/>
      <point x="377" y="79" type="line"/>
      <point x="343" y="72"/>
      <point x="289" y="63"/>
      <point x="247" y="63" type="curve" smooth="yes"/>
      <point x="176" y="63"/>
      <point x="145" y="91"/>
      <point x="145" y="159" type="curve" smooth="yes"/>
      <point x="145" y="218" type="line"/>
      <point x="402" y="218" type="line"/>
      <point x="402" y="321" type="line" smooth="yes"/>
      <point x="402" y="437"/>
      <point x="342" y="500"/>
    </contour>
    <contour>
      <point x="230" y="429" type="curve" smooth="yes"/>
      <point x="282" y="429"/>
      <point x="317" y="397"/>
      <point x="317" y="331" type="curve" smooth="yes"/>
      <point x="317" y="286" type="line"/>
      <point x="145" y="286" type="line"/>
      <point x="145" y="334" type="line" smooth="yes"/>
      <point x="145" y="396"/>
      <point x="179" y="429"/>
    </contour>
  </outline>
</glyph>
<glyph name="k" format="1">
  <advance width="427"/>
  <unicode hex="006B"/>
  <outline>
    <contour>
      <point x="236" y="0" type="move" name="bottom"/>
    </contour>
    <contour>
      <point x="155" y="683" type="line"/>
      <point x="70" y="683" type="line"/>
      <point x="70" y="0" type="line"/>
      <point x="155" y="0" type="line"/>
      <point x="155" y="262" type="line"/>
      <point x="320" y="0" type="line"/>
      <point x="422" y="0" type="line"/>
      <point x="244" y="274" type="line"/>
      <point x="410" y="488" type="line"/>
      <point x="315" y="488" type="line"/>
      <point x="155" y="274" type="line"/>
    </contour>
  </outline>
</glyph>
<glyph name="l" format="1">
  <advance width="225"/>
  <unicode hex="006C"/>
  <outline>
    <contour>
      <point x="113" y="0" type="move" name="bottom"/>
    </contour>
    <contour>
      <point x="234" y="440" type="move" name="center"/>
    </contour>
    <contour>
      <point x="122" y="655" type="move" name="top"/>
    </contour>
    <contour>
      <point x="245" y="488" type="move" name="topleft"/>
    </contour>
    <contour>
      <point x="155" y="683" type="line"/>
      <point x="70" y="683" type="line"/>
      <point x="70" y="0" type="line"/>
      <point x="155" y="0" type="line"/>
    </contour>
  </outline>
</glyph>
<glyph name="n" format="1">
  <advance width="486"/>
  <unicode hex="006E"/>
  <outline>
    <contour>
      <point x="11" y="488" type="move" name="apo"/>
    </contour>
    <contour>
      <point x="249" y="0" type="move" name="bottom"/>
    </contour>
    <contour>
      <point x="247" y="488" type="move" name="top"/>
    </contour>
    <contour>
      <point x="283" y="500" type="curve" smooth="yes"/>
      <point x="231" y="500"/>
      <point x="185" y="469"/>
      <point x="150" y="415" type="curve"/>
      <point x="150" y="488" type="line"/>
      <point x="70" y="488" type="line"/>
      <point x="70" y="0" type="line"/>
      <point x="155" y="0" type="line"/>
      <point x="155" y="339" type="line"/>
      <point x="184" y="390"/>
      <point x="227" y="421"/>
      <point x="266" y="421" type="curve" smooth="yes"/>
      <point x="305" y="421"/>
      <point x="331" y="393"/>
      <point x="331" y="321" type="curve" smooth="yes"/>
      <point x="331" y="0" type="line"/>
      <point x="416" y="0" type="line"/>
      <point x="416" y="333" type="line" smooth="yes"/>
      <point x="416" y="440"/>
      <point x="368" y="500"/>
    </contour>
  </outline>
</glyph>
<glyph name="o" format="1">
  <advance width="472"/>
  <unicode hex="006F"/>
  <outline>
    <contour>
      <point x="236" y="488" type="move" name="top"/>
    </contour>
    <contour>
      <point x="236" y="500" type="curve" smooth="yes"/>
      <point x="114" y="500"/>
      <point x="60" y="431"/>
      <point x="60" y="318" type="curve" smooth="yes"/>
      <point x="60" y="170" type="line" smooth="yes"/>
      <point x="60" y="57"/>
      <point x="114" y="-12"/>
      <point x="236" y="-12" type="curve" smooth="yes"/>
      <point x="358" y="-12"/>
      <point x="412" y="57"/>
      <point x="412" y="170" type="curve" smooth="yes"/>
      <point x="412" y="318" type="line" smooth="yes"/>
      <point x="412" y="431"/>
      <point x="358" y="500"/>
    </contour>
    <contour>
      <point x="236" y="429" type="curve" smooth="yes"/>
      <point x="293" y="429"/>
      <point x="327" y="394"/>
      <point x="327" y="326" type="curve" smooth="yes"/>
      <point x="327" y="163" type="line" smooth="yes"/>
      <point x="327" y="95"/>
      <point x="293" y="59"/>
      <point x="236" y="59" type="curve" smooth="yes"/>
      <point x="179" y="59"/>
      <point x="145" y="95"/>
      <point x="145" y="163" type="curve" smooth="yes"/>
      <point x="145" y="325" type="line" smooth="yes"/>
      <point x="145" y="393"/>
      <point x="179" y="429"/>
    </contour>
  </outline>
</glyph>
<glyph name="q" format="1">
  <advance width="476"/>
  <unicode hex="0071"/>
  <outline>
    <contour>
      <point x="201" y="500" type="curve" smooth="yes"/>
      <point x="109" y="500"/>
      <point x="60" y="437"/>
      <point x="60" y="333" type="curve" smooth="yes"/>
      <point x="60" y="155" type="line" smooth="yes"/>
      <point x="60" y="45"/>
      <point x="106" y="-12"/>
      <point x="188" y="-12" type="curve" smooth="yes"/>
      <point x="238" y="-12"/>
      <point x="283" y="18"/>
      <point x="321" y="73" type="curve"/>
      <point x="321" y="-185" type="line"/>
      <point x="406" y="-185" type="line"/>
      <point x="406" y="488" type="line"/>
      <point x="325" y="488" type="line"/>
      <point x="325" y="447" type="line"/>
      <point x="295" y="470"/>
      <point x="246" y="500"/>
    </contour>
    <contour>
      <point x="220" y="424" type="curve" smooth="yes"/>
      <point x="251" y="424"/>
      <point x="293" y="403"/>
      <point x="321" y="374" type="curve"/>
      <point x="321" y="154" type="line"/>
      <point x="289" y="96"/>
      <point x="247" y="64"/>
      <point x="208" y="64" type="curve" smooth="yes"/>
      <point x="171" y="64"/>
      <point x="145" y="90"/>
      <point x="145" y="166" type="curve" smooth="yes"/>
      <point x="145" y="321" type="line" smooth="yes"/>
      <point x="145" y="393"/>
      <point x="174" y="424"/>
    </contour>
  </outline>
</glyph>
<glyph name="r" format="1">
  <advance width="325"/>
  <unicode hex="0072"/>
  <outline>
    <contour>
      <point x="116" y="0" type="move" name="bottom"/>
    </contour>
    <contour>
      <point x="181" y="488" type="move" name="top"/>
    </contour>
    <contour>
      <point x="283" y="500" type="curve" smooth="yes"/>
      <point x="231" y="500"/>
      <point x="185" y="469"/>
      <point x="150" y="415" type="curve"/>
      <point x="150" y="488" type="line"/>
      <point x="70" y="488" type="line"/>
      <point x="70" y="0" type="line"/>
      <point x="155" y="0" type="line"/>
      <point x="155" y="335" type="line"/>
      <point x="184" y="384"/>
      <point x="223" y="405"/>
      <point x="266" y="405" type="curve" smooth="yes"/>
      <point x="284" y="405"/>
      <point x="295" y="404"/>
      <point x="305" y="402" type="curve"/>
      <point x="305" y="498" type="line"/>
      <point x="301" y="499"/>
      <point x="292" y="500"/>
    </contour>
  </outline>
</glyph>
<glyph name="u" format="1">
  <advance width="480"/>
  <unicode hex="0075"/>
  <outline>
    <contour>
      <point x="432" y="10" type="move" name="ogonek"/>
    </contour>
    <contour>
      <point x="240" y="488" type="move" name="top"/>
    </contour>
    <contour>
      <point x="410" y="488" type="line"/>
      <point x="325" y="488" type="line"/>
      <point x="325" y="148" type="line"/>
      <point x="295" y="97"/>
      <point x="253" y="67"/>
      <point x="217" y="67" type="curve" smooth="yes"/>
      <point x="180" y="67"/>
      <point x="155" y="97"/>
      <point x="155" y="170" type="curve" smooth="yes"/>
      <point x="155" y="488" type="line"/>
      <point x="70" y="488" type="line"/>
      <point x="70" y="155" type="line" smooth="yes"/>
      <point x="70" y="43"/>
      <point x="121" y="-12"/>
      <point x="200" y="-12" type="curve" smooth="yes"/>
      <point x="249" y="-12"/>
      <point x="294" y="17"/>
      <point x="330" y="70" type="curve"/>
      <point x="330" y="0" type="line"/>
      <point x="410" y="0" type="line"/>
    </contour>
  </outline>
</glyph>
<glyph name="v" format="1">
  <advance width="432"/>
  <unicode hex="0076"/>
  <outline>
    <contour>
      <point x="422" y="488" type="line"/>
      <point x="332" y="488" type="line"/>
      <point x="216" y="62" type="line"/>
      <point x="100" y="488" type="line"/>
      <point x="10" y="488" type="line"/>
      <point x="160" y="0" type="line"/>
      <point x="271" y="0" type="line"/>
    </contour>
  </outline>
</glyph>
<glyph name="w" format="1">
  <advance width="678"/>
  <unicode hex="0077"/>
  <outline>
    <contour>
      <point x="339" y="488" type="move" name="top"/>
    </contour>
    <contour>
      <point x="658" y="488" type="line"/>
      <point x="568" y="488" type="line"/>
      <point x="488" y="75" type="line"/>
      <point x="394" y="488" type="line"/>
      <point x="284" y="488" type="line"/>
      <point x="189" y="75" type="line"/>
      <point x="110" y="488" type="line"/>
      <point x="20" y="488" type="line"/>
      <point x="132" y="0" type="line"/>
      <point x="239" y="0" type="line"/>
      <point x="339" y="414" type="line"/>
      <point x="438" y="0" type="line"/>
      <point x="545" y="0" type="line"/>
    </contour>
  </outline>
</glyph>
<glyph name="x" format="1">
  <advance width="421"/>
  <unicode hex="0078"/>
  <outline>
    <contour>
      <point x="405" y="488" type="line"/>
      <point x="311" y="488" type="line"/>
      <point x="211" y="313" type="line"/>
      <point x="112" y="488" type="line"/>
      <point x="15" y="488" type="line"/>
      <point x="157" y="251" type="line"/>
      <point x="5" y="0" type="line"/>
      <point x="102" y="0" type="line"/>
      <point x="209" y="191" type="line"/>
      <point x="319" y="0" type="line"/>
      <point x="416" y="0" type="line"/>
      <point x="262" y="254" type="line"/>
    </contour>
  </outline>
</glyph>
<glyph name="z" format="1">
  <advance width="401"/>
  <unicode hex="007A"/>
  <outline>
    <contour>
      <point x="209" y="488" type="move" name="top"/>
    </contour>
    <contour>
      <point x="361" y="488" type="line"/>
      <point x="40" y="488" type="line"/>
      <point x="40" y="415" type="line"/>
      <point x="262" y="415" type="line"/>
      <point x="35" y="63" type="line"/>
      <point x="35" y="0" type="line"/>
      <point x="361" y="0" type="line"/>
      <point x="361" y="73" type="line"/>
      <point x="135" y="73" type="line"/>
      <point x="361" y="425" type="line"/>
    </contour>
  </outline>
</glyph>
<glyph name="bar" format="1">
  <advance width="225"/>
  <unicode hex="007C"/>
  <outline>
    <contour>
      <point x="155" y="758" type="line"/>
      <point x="70" y="758" type="line"/>
      <point x="70" y="-104" type="line"/>
      <point x="155" y="-104" type="line"/>
    </contour>
  </outline>
</glyph>
<glyph name="braceright" format="1">
  <advance width="256"/>
  <unicode hex="007D"/>
  <outline>
    <contour>
      <point x="-9" y="677" type="line"/>
      <point x="65" y="677"/>
      <point x="77" y="663"/>
      <point x="77" y="588" type="curve" smooth="yes"/>
      <point x="77" y="442" type="line" smooth="yes"/>
      <point x="77" y="374"/>
      <point x="94" y="341"/>
      <point x="135" y="327" type="curve"/>
      <point x="95" y="314"/>
      <point x="77" y="280"/>
      <point x="77" y="212" type="curve" smooth="yes"/>
      <point x="77" y="67" type="line" smooth="yes"/>
      <point x="77" y="-12"/>
      <point x="61" y="-22"/>
      <point x="-9" y="-22" type="curve"/>
      <point x="-9" y="-92" type="line"/>
      <point x="128" y="-92"/>
      <point x="162" y="-64"/>
      <point x="162" y="88" type="curve" smooth="yes"/>
      <point x="162" y="212" type="line" smooth="yes"/>
      <point x="162" y="274"/>
      <point x="179" y="292"/>
      <point x="227" y="292" type="curve" smooth="yes"/>
      <point x="252" y="292" type="line"/>
      <point x="252" y="362" type="line"/>
      <point x="227" y="362" type="line" smooth="yes"/>
      <point x="179" y="362"/>
      <point x="162" y="381"/>
      <point x="162" y="442" type="curve" smooth="yes"/>
      <point x="162" y="567" type="line" smooth="yes"/>
      <point x="162" y="722"/>
      <point x="125" y="747"/>
      <point x="-9" y="747" type="curve"/>
    </contour>
  </outline>
</glyph>
<glyph name="asciitilde" format="1">
  <advance width="390"/>
  <unicode hex="007E"/>
  <outline>
    <contour>
      <point x="118" y="352" type="curve" smooth="yes"/>
      <point x="60" y="352"/>
      <point x="18" y="324"/>
      <point x="18" y="324" type="curve"/>
      <point x="18" y="254" type="line"/>
      <point x="18" y="254"/>
      <point x="79" y="279"/>
      <point x="116" y="279" type="curve" smooth="yes"/>
      <point x="184" y="279"/>
      <point x="201" y="251"/>
      <point x="272" y="251" type="curve" smooth="yes"/>
      <point x="330" y="251"/>
      <point x="372" y="279"/>
      <point x="372" y="279" type="curve"/>
      <point x="372" y="349" type="line"/>
      <point x="372" y="349"/>
      <point x="311" y="324"/>
      <point x="274" y="324" type="curve" smooth="yes"/>
      <point x="208" y="324"/>
      <point x="189" y="352"/>
    </contour>
  </outline>
</glyph>
<glyph name="brokenbar" format="1">
  <advance width="225"/>
  <unicode hex="00A6"/>
  <outline>
    <contour>
      <point x="155" y="758" type="line"/>
      <point x="70" y="758" type="line"/>
      <point x="70" y="388" type="line"/>
      <point x="155" y="388" type="line"/>
    </contour>
    <contour>
      <point x="155" y="266" type="line"/>
      <point x="70" y="266" type="line"/>
      <point x="70" y="-104" type="line"/>
      <point x="155" y="-104" type="line"/>
    </contour>
  </outline>
</glyph>
<glyph name="guillemotleft" format="1">
  <advance width="488"/>
  <unicode hex="00AB"/>
  <outline>
    <contour>
      <point x="423" y="438" type="line"/>
      <point x="335" y="438" type="line"/>
      <point x="235" y="268" type="line"/>
      <point x="335" y="98" type="line"/>
      <point x="423" y="98" type="line"/>
      <point x="330" y="268" type="line"/>
    </contour>
    <contour>
      <point x="253" y="438" type="line"/>
      <point x="165" y="438" type="line"/>
      <point x="65" y="268" type="line"/>
      <point x="165" y="98" type="line"/>
      <point x="253" y="98" type="line"/>
      <point x="160" y="268" type="line"/>
    </contour>
  </outline>
</glyph>
<glyph name="logicalnot" format="1">
  <advance width="390"/>
  <unicode hex="00AC"/>
  <outline>
    <contour>
      <point x="375" y="335" type="line"/>
      <point x="14" y="335" type="line"/>
      <point x="14" y="265" type="line"/>
      <point x="299" y="265" type="line"/>
      <point x="299" y="113" type="line"/>
      <point x="375" y="113" type="line"/>
    </contour>
  </outline>
</glyph>
<glyph name="registered" format="1">
  <advance width="528"/>
  <unicode hex="00AE"/>
  <outline>
    <contour>
      <point x="264" y="694" type="curve" smooth="yes"/>
      <point x="131" y="694"/>
      <point x="80" y="628"/>
      <point x="80" y="521" type="curve" smooth="yes"/>
      <point x="80" y="487" type="line" smooth="yes"/>
      <point x="80" y="380"/>
      <point x="131" y="314"/>
      <point x="264" y="314" type="curve" smooth="yes"/>
      <point x="397" y="314"/>
      <point x="448" y="382"/>
      <point x="448" y="487" type="curve" smooth="yes"/>
      <point x="448" y="521" type="line" smooth="yes"/>
      <point x="448" y="628"/>
      <point x="397" y="694"/>
    </contour>
    <contour>
      <point x="264" y="650" type="curve" smooth="yes"/>
      <point x="362" y="650"/>
      <point x="400" y="609"/>
      <point x="400" y="529" type="curve" smooth="yes"/>
      <point x="400" y="480" type="line" smooth="yes"/>
      <point x="400" y="401"/>
      <point x="362" y="358"/>
      <point x="264" y="358" type="curve" smooth="yes"/>
      <point x="166" y="358"/>
      <point x="128" y="401"/>
      <point x="128" y="480" type="curve" smooth="yes"/>
      <point x="128" y="528" type="line" smooth="yes"/>
      <point x="128" y="607"/>
      <point x="166" y="650"/>
    </contour>
    <contour>
      <point x="265" y="618" type="curve" smooth="yes"/>
      <point x="249" y="618"/>
      <point x="222" y="617"/>
      <point x="193" y="616" type="curve"/>
      <point x="193" y="395" type="line"/>
      <point x="236" y="395" type="line"/>
      <point x="236" y="475" type="line"/>
      <point x="246" y="475"/>
      <point x="256" y="475"/>
      <point x="266" y="475" type="curve"/>
      <point x="310" y="395" type="line"/>
      <point x="359" y="395" type="line"/>
      <point x="307" y="481" type="line"/>
      <point x="334" y="492"/>
      <point x="352" y="515"/>
      <point x="352" y="540" type="curve" smooth="yes"/>
      <point x="352" y="550" type="line" smooth="yes"/>
      <point x="352" y="591"/>
      <point x="329" y="618"/>
    </contour>
    <contour>
      <point x="268" y="580" type="curve" smooth="yes"/>
      <point x="297" y="580"/>
      <point x="308" y="571"/>
      <point x="308" y="549" type="curve" smooth="yes"/>
      <point x="308" y="541" type="line" smooth="yes"/>
      <point x="308" y="524"/>
      <point x="297" y="513"/>
      <point x="270" y="513" type="curve" smooth="yes"/>
      <point x="262" y="513"/>
      <point x="249" y="513"/>
      <point x="236" y="514" type="curve"/>
      <point x="236" y="578" type="line"/>
      <point x="243" y="579"/>
      <point x="261" y="580"/>
    </contour>
  </outline>
</glyph>
<glyph name="degree" format="1">
  <advance width="390"/>
  <unicode hex="00B0"/>
  <outline>
    <contour>
      <point x="195" y="695" type="curve" smooth="yes"/>
      <point x="89" y="695"/>
      <point x="35" y="636"/>
      <point x="35" y="528" type="curve" smooth="yes"/>
      <point x="35" y="506" type="line" smooth="yes"/>
      <point x="35" y="398"/>
      <point x="89" y="339"/>
      <point x="195" y="339" type="curve" smooth="yes"/>
      <point x="301" y="339"/>
      <point x="354" y="398"/>
      <point x="354" y="506" type="curve"/>
      <point x="354" y="528" type="line" smooth="yes"/>
      <point x="354" y="636"/>
      <point x="301" y="695"/>
    </contour>
    <contour>
      <point x="195" y="626" type="curve" smooth="yes"/>
      <point x="247" y="626"/>
      <point x="277" y="596"/>
      <point x="277" y="528" type="curve" smooth="yes"/>
      <point x="277" y="506" type="line" smooth="yes"/>
      <point x="277" y="438"/>
      <point x="246" y="408"/>
      <point x="195" y="408" type="curve" smooth="yes"/>
      <point x="143" y="408"/>
      <point x="112" y="438"/>
      <point x="112" y="506" type="curve" smooth="yes"/>
      <point x="112" y="528" type="line" smooth="yes"/>
      <point x="112" y="596"/>
      <point x="143" y="626"/>
    </contour>
  </outline>
</glyph>
<glyph name="plusminus" format="1">
  <advance width="390"/>
  <unicode hex="00B1"/>
  <outline>
    <contour>
      <point x="233" y="488" type="line"/>
      <point x="157" y="488" type="line"/>
      <point x="157" y="336" type="line"/>
      <point x="17" y="336" type="line"/>
      <point x="17" y="265" type="line"/>
      <point x="157" y="265" type="line"/>
      <point x="157" y="113" type="line"/>
      <point x="233" y="113" type="line"/>
      <point x="233" y="265" type="line"/>
      <point x="373" y="265" type="line"/>
      <point x="373" y="336" type="line"/>
      <point x="233" y="336" type="line"/>
    </contour>
    <contour>
      <point x="372" y="70" type="line"/>
      <point x="16" y="70" type="line"/>
      <point x="16" y="0" type="line"/>
      <point x="372" y="0" type="line"/>
    </contour>
  </outline>
</glyph>
<glyph name="uni00B5" format="1">
  <advance width="480"/>
  <unicode hex="00B5"/>
  <outline>
    <contour>
      <point x="410" y="488" type="line"/>
      <point x="325" y="488" type="line"/>
      <point x="325" y="148" type="line"/>
      <point x="295" y="97"/>
      <point x="254" y="67"/>
      <point x="217" y="67" type="curve" smooth="yes"/>
      <point x="180" y="67"/>
      <point x="155" y="97"/>
      <point x="155" y="170" type="curve" smooth="yes"/>
      <point x="155" y="488" type="line"/>
      <point x="70" y="488" type="line"/>
      <point x="70" y="-185" type="line"/>
      <point x="152" y="-185" type="line"/>
      <point x="152" y="4" type="line"/>
      <point x="168" y="-6"/>
      <point x="187" y="-12"/>
      <point x="205" y="-12" type="curve" smooth="yes"/>
      <point x="248" y="-12"/>
      <point x="294" y="17"/>
      <point x="330" y="70" type="curve"/>
      <point x="330" y="0" type="line"/>
      <point x="410" y="0" type="line"/>
    </contour>
  </outline>
</glyph>
<glyph name="onesuperior" format="1">
  <advance width="400"/>
  <unicode hex="00B9"/>
  <outline>
    <contour>
      <point x="256" y="752" type="line"/>
      <point x="191" y="752" type="line"/>
      <point x="63" y="704" type="line"/>
      <point x="78" y="637" type="line"/>
      <point x="175" y="676" type="line"/>
      <point x="176" y="676" type="line"/>
      <point x="176" y="397" type="line"/>
      <point x="84" y="397" type="line"/>
      <point x="84" y="331" type="line"/>
      <point x="336" y="331" type="line"/>
      <point x="336" y="397" type="line"/>
      <point x="256" y="397" type="line"/>
    </contour>
  </outline>
</glyph>
<glyph name="ordmasculine" format="1">
  <advance width="492"/>
  <unicode hex="00BA"/>
  <outline>
    <contour>
      <point x="246" y="667" type="curve" smooth="yes"/>
      <point x="126" y="667"/>
      <point x="70" y="600"/>
      <point x="70" y="485" type="curve" smooth="yes"/>
      <point x="70" y="397" type="line" smooth="yes"/>
      <point x="70" y="276"/>
      <point x="132" y="215"/>
      <point x="246" y="215" type="curve" smooth="yes"/>
      <point x="361" y="215"/>
      <point x="422" y="276"/>
      <point x="422" y="397" type="curve" smooth="yes"/>
      <point x="422" y="485" type="line" smooth="yes"/>
      <point x="422" y="600"/>
      <point x="366" y="667"/>
    </contour>
    <contour>
      <point x="417" y="73" type="line"/>
      <point x="75" y="73" type="line"/>
      <point x="75" y="0" type="line"/>
      <point x="417" y="0" type="line"/>
    </contour>
    <contour>
      <point x="246" y="596" type="curve" smooth="yes"/>
      <point x="303" y="596"/>
      <point x="337" y="561"/>
      <point x="337" y="493" type="curve" smooth="yes"/>
      <point x="337" y="390" type="line" smooth="yes"/>
      <point x="337" y="322"/>
      <point x="303" y="286"/>
      <point x="246" y="286" type="curve" smooth="yes"/>
      <point x="189" y="286"/>
      <point x="155" y="322"/>
      <point x="155" y="390" type="curve" smooth="yes"/>
      <point x="155" y="492" type="line" smooth="yes"/>
      <point x="155" y="560"/>
      <point x="189" y="596"/>
    </contour>
  </outline>
</glyph>
<glyph name="onequarter" format="1">
  <advance width="1000"/>
  <unicode hex="00BC"/>
  <outline>
    <contour>
      <point x="816" y="421" type="line"/>
      <point x="744" y="421" type="line"/>
      <point x="640" y="132" type="line"/>
      <point x="660" y="90" type="line"/>
      <point x="831" y="90" type="line"/>
      <point x="831" y="0" type="line"/>
      <point x="908" y="0" type="line"/>
      <point x="908" y="90" type="line"/>
      <point x="964" y="90" type="line"/>
      <point x="964" y="154" type="line"/>
      <point x="908" y="154" type="line"/>
      <point x="908" y="286" type="line"/>
      <point x="832" y="286" type="line"/>
      <point x="832" y="172" type="line"/>
      <point x="832" y="154" type="line"/>
      <point x="723" y="154" type="line"/>
    </contour>
    <contour>
      <point x="690" y="601" type="line"/>
      <point x="607" y="601" type="line"/>
      <point x="302" y="0" type="line"/>
      <point x="385" y="0" type="line"/>
    </contour>
    <contour>
      <point x="246" y="602" type="line"/>
      <point x="181" y="602" type="line"/>
      <point x="53" y="554" type="line"/>
      <point x="68" y="487" type="line"/>
      <point x="165" y="526" type="line"/>
      <point x="166" y="526" type="line"/>
      <point x="166" y="247" type="line"/>
      <point x="74" y="247" type="line"/>
      <point x="74" y="181" type="line"/>
      <point x="326" y="181" type="line"/>
      <point x="326" y="247" type="line"/>
      <point x="246" y="247" type="line"/>
    </contour>
  </outline>
</glyph>
<glyph name="onehalf" format="1">
  <advance width="1000"/>
  <unicode hex="00BD"/>
  <outline>
    <contour>
      <point x="698" y="601" type="line"/>
      <point x="615" y="601" type="line"/>
      <point x="310" y="0" type="line"/>
      <point x="393" y="0" type="line"/>
    </contour>
    <contour>
      <point x="794" y="429" type="curve" smooth="yes"/>
      <point x="767" y="429"/>
      <point x="729" y="422"/>
      <point x="696" y="413" type="curve"/>
      <point x="696" y="348" type="line"/>
      <point x="723" y="357"/>
      <point x="764" y="365"/>
      <point x="794" y="365" type="curve" smooth="yes"/>
      <point x="847" y="365"/>
      <point x="866" y="350"/>
      <point x="866" y="318" type="curve" smooth="yes"/>
      <point x="866" y="302" type="line" smooth="yes"/>
      <point x="866" y="273"/>
      <point x="861" y="260"/>
      <point x="835" y="230" type="curve" smooth="yes"/>
      <point x="687" y="60" type="line"/>
      <point x="687" y="0" type="line"/>
      <point x="943" y="0" type="line"/>
      <point x="943" y="66" type="line"/>
      <point x="782" y="66" type="line"/>
      <point x="879" y="170" type="line" smooth="yes"/>
      <point x="928" y="223"/>
      <point x="942" y="258"/>
      <point x="942" y="303" type="curve" smooth="yes"/>
      <point x="942" y="321" type="line" smooth="yes"/>
      <point x="942" y="390"/>
      <point x="899" y="429"/>
    </contour>
    <contour>
      <point x="251" y="602" type="line"/>
      <point x="186" y="602" type="line"/>
      <point x="58" y="554" type="line"/>
      <point x="73" y="487" type="line"/>
      <point x="170" y="526" type="line"/>
      <point x="171" y="526" type="line"/>
      <point x="171" y="247" type="line"/>
      <point x="79" y="247" type="line"/>
      <point x="79" y="181" type="line"/>
      <point x="331" y="181" type="line"/>
      <point x="331" y="247" type="line"/>
      <point x="251" y="247" type="line"/>
    </contour>
  </outline>
</glyph>
<glyph name="threequarters" format="1">
  <advance width="1000"/>
  <unicode hex="00BE"/>
  <outline>
    <contour>
      <point x="798" y="421" type="line"/>
      <point x="726" y="421" type="line"/>
      <point x="622" y="132" type="line"/>
      <point x="642" y="90" type="line"/>
      <point x="813" y="90" type="line"/>
      <point x="813" y="0" type="line"/>
      <point x="890" y="0" type="line"/>
      <point x="890" y="90" type="line"/>
      <point x="946" y="90" type="line"/>
      <point x="946" y="154" type="line"/>
      <point x="890" y="154" type="line"/>
      <point x="890" y="286" type="line"/>
      <point x="814" y="286" type="line"/>
      <point x="814" y="172" type="line"/>
      <point x="814" y="154" type="line"/>
      <point x="705" y="154" type="line"/>
    </contour>
    <contour>
      <point x="660" y="601" type="line"/>
      <point x="577" y="601" type="line"/>
      <point x="272" y="0" type="line"/>
      <point x="355" y="0" type="line"/>
    </contour>
    <contour>
      <point x="148" y="610" type="curve" smooth="yes"/>
      <point x="122" y="610"/>
      <point x="86" y="606"/>
      <point x="53" y="601" type="curve"/>
      <point x="53" y="539" type="line"/>
      <point x="79" y="543"/>
      <point x="119" y="549"/>
      <point x="148" y="549" type="curve" smooth="yes"/>
      <point x="190" y="549"/>
      <point x="208" y="535"/>
      <point x="208" y="502" type="curve" smooth="yes"/>
      <point x="208" y="489" type="line" smooth="yes"/>
      <point x="208" y="447"/>
      <point x="191" y="427"/>
      <point x="140" y="427" type="curve" smooth="yes"/>
      <point x="82" y="427" type="line"/>
      <point x="82" y="368" type="line"/>
      <point x="140" y="368" type="line" smooth="yes"/>
      <point x="195" y="368"/>
      <point x="216" y="347"/>
      <point x="216" y="304" type="curve" smooth="yes"/>
      <point x="216" y="291" type="line" smooth="yes"/>
      <point x="216" y="256"/>
      <point x="196" y="235"/>
      <point x="152" y="235" type="curve" smooth="yes"/>
      <point x="123" y="235"/>
      <point x="79" y="239"/>
      <point x="53" y="243" type="curve"/>
      <point x="53" y="182" type="line"/>
      <point x="86" y="177"/>
      <point x="125" y="173"/>
      <point x="150" y="173" type="curve" smooth="yes"/>
      <point x="245" y="173"/>
      <point x="295" y="224"/>
      <point x="295" y="295" type="curve" smooth="yes"/>
      <point x="295" y="302" type="line" smooth="yes"/>
      <point x="295" y="347"/>
      <point x="270" y="385"/>
      <point x="225" y="403" type="curve"/>
      <point x="268" y="423"/>
      <point x="285" y="451"/>
      <point x="285" y="495" type="curve" smooth="yes"/>
      <point x="285" y="502" type="line" smooth="yes"/>
      <point x="285" y="568"/>
      <point x="241" y="610"/>
    </contour>
  </outline>
</glyph>
<glyph name="Aring" format="1">
  <advance width="532"/>
  <unicode hex="00C5"/>
  <outline>
    <contour>
      <point x="266" y="800" type="curve" smooth="yes"/>
      <point x="196" y="800"/>
      <point x="151" y="768"/>
      <point x="151" y="700" type="curve" smooth="yes"/>
      <point x="151" y="657"/>
      <point x="169" y="628"/>
      <point x="200" y="613" type="curve"/>
      <point x="13" y="0" type="line"/>
      <point x="100" y="0" type="line"/>
      <point x="143" y="152" type="line"/>
      <point x="384" y="152" type="line"/>
      <point x="427" y="0" type="line"/>
      <point x="519" y="0" type="line"/>
      <point x="331" y="612" type="line"/>
      <point x="362" y="627"/>
      <point x="381" y="656"/>
      <point x="381" y="700" type="curve" smooth="yes"/>
      <point x="381" y="768"/>
      <point x="335" y="800"/>
    </contour>
    <contour>
      <point x="264" y="582" type="line"/>
      <point x="363" y="228" type="line"/>
      <point x="164" y="228" type="line"/>
    </contour>
    <contour>
      <point x="266" y="745" type="curve" smooth="yes"/>
      <point x="303" y="745"/>
      <point x="316" y="726"/>
      <point x="316" y="700" type="curve" smooth="yes"/>
      <point x="316" y="674"/>
      <point x="303" y="655"/>
      <point x="266" y="655" type="curve" smooth="yes"/>
      <point x="229" y="655"/>
      <point x="216" y="674"/>
      <point x="216" y="700" type="curve" smooth="yes"/>
      <point x="216" y="726"/>
      <point x="229" y="745"/>
    </contour>
  </outline>
</glyph>
<glyph name="multiply" format="1">
  <advance width="390"/>
  <unicode hex="00D7"/>
  <outline>
    <contour>
      <point x="302" y="458" type="line"/>
      <point x="196" y="352" type="line"/>
      <point x="88" y="460" type="line"/>
      <point x="35" y="406" type="line"/>
      <point x="142" y="298" type="line"/>
      <point x="37" y="193" type="line"/>
      <point x="87" y="143" type="line"/>
      <point x="192" y="248" type="line"/>
      <point x="300" y="141" type="line"/>
      <point x="354" y="194" type="line"/>
      <point x="246" y="302" type="line"/>
      <point x="352" y="408" type="line"/>
    </contour>
  </outline>
</glyph>
<glyph name="ae" format="1">
  <advance width="690"/>
  <unicode hex="00E6"/>
  <outline>
    <contour>
      <point x="375" y="488" type="move" name="top"/>
    </contour>
    <contour>
      <point x="472" y="500" type="curve" smooth="yes"/>
      <point x="416" y="500"/>
      <point x="374" y="480"/>
      <point x="350" y="443" type="curve"/>
      <point x="326" y="481"/>
      <point x="281" y="500"/>
      <point x="219" y="500" type="curve" smooth="yes"/>
      <point x="184" y="500"/>
      <point x="128" y="492"/>
      <point x="84" y="485" type="curve"/>
      <point x="84" y="415" type="line"/>
      <point x="119" y="421"/>
      <point x="180" y="430"/>
      <point x="219" y="430" type="curve" smooth="yes"/>
      <point x="274" y="430"/>
      <point x="299" y="407"/>
      <point x="299" y="351" type="curve" smooth="yes"/>
      <point x="299" y="293" type="line"/>
      <point x="269" y="299"/>
      <point x="225" y="306"/>
      <point x="196" y="306" type="curve" smooth="yes"/>
      <point x="101" y="306"/>
      <point x="45" y="244"/>
      <point x="45" y="165" type="curve" smooth="yes"/>
      <point x="45" y="137" type="line" smooth="yes"/>
      <point x="45" y="45"/>
      <point x="95" y="-12"/>
      <point x="172" y="-12" type="curve" smooth="yes"/>
      <point x="231" y="-12"/>
      <point x="279" y="25"/>
      <point x="320" y="90" type="curve"/>
      <point x="339" y="24"/>
      <point x="387" y="-12"/>
      <point x="488" y="-12" type="curve" smooth="yes"/>
      <point x="526" y="-12"/>
      <point x="582" y="-2"/>
      <point x="626" y="6" type="curve"/>
      <point x="630" y="81" type="line"/>
      <point x="595" y="74"/>
      <point x="531" y="63"/>
      <point x="488" y="63" type="curve" smooth="yes"/>
      <point x="418" y="63"/>
      <point x="384" y="91"/>
      <point x="384" y="159" type="curve" smooth="yes"/>
      <point x="384" y="218" type="line"/>
      <point x="645" y="218" type="line"/>
      <point x="645" y="321" type="line" smooth="yes"/>
      <point x="645" y="438"/>
      <point x="583" y="500"/>
    </contour>
    <contour>
      <point x="217" y="238" type="curve" smooth="yes"/>
      <point x="238" y="238"/>
      <point x="272" y="236"/>
      <point x="299" y="231" type="curve"/>
      <point x="299" y="154" type="line"/>
      <point x="267" y="96"/>
      <point x="226" y="64"/>
      <point x="191" y="64" type="curve" smooth="yes"/>
      <point x="156" y="64"/>
      <point x="131" y="93"/>
      <point x="131" y="143" type="curve" smooth="yes"/>
      <point x="131" y="154" type="line" smooth="yes"/>
      <point x="131" y="206"/>
      <point x="161" y="238"/>
    </contour>
    <contour>
      <point x="472" y="429" type="curve" smooth="yes"/>
      <point x="526" y="429"/>
      <point x="560" y="395"/>
      <point x="560" y="331" type="curve" smooth="yes"/>
      <point x="560" y="288" type="line"/>
      <point x="384" y="288" type="line"/>
      <point x="384" y="339" type="line"/>
      <point x="386" y="398"/>
      <point x="420" y="429"/>
    </contour>
  </outline>
</glyph>
<glyph name="eth" format="1">
  <advance width="487"/>
  <unicode hex="00F0"/>
  <outline>
    <contour>
      <point x="110" y="631" type="line"/>
      <point x="167" y="631"/>
      <point x="219" y="612"/>
      <point x="258" y="576" type="curve"/>
      <point x="172" y="551" type="line"/>
      <point x="172" y="484" type="line"/>
      <point x="299" y="522" type="line"/>
      <point x="319" y="485"/>
      <point x="331" y="440"/>
      <point x="331" y="386" type="curve" smooth="yes"/>
      <point x="331" y="361" type="line"/>
      <point x="293" y="415"/>
      <point x="248" y="439"/>
      <point x="203" y="439" type="curve" smooth="yes"/>
      <point x="121" y="439"/>
      <point x="70" y="383"/>
      <point x="70" y="272" type="curve" smooth="yes"/>
      <point x="70" y="157" type="line" smooth="yes"/>
      <point x="70" y="41"/>
      <point x="122" y="-12"/>
      <point x="243" y="-12" type="curve" smooth="yes"/>
      <point x="357" y="-12"/>
      <point x="416" y="53"/>
      <point x="416" y="170" type="curve" smooth="yes"/>
      <point x="416" y="340" type="line" smooth="yes"/>
      <point x="416" y="423"/>
      <point x="403" y="492"/>
      <point x="377" y="545" type="curve"/>
      <point x="427" y="560" type="line"/>
      <point x="427" y="625" type="line"/>
      <point x="342" y="600" type="line"/>
      <point x="290" y="664"/>
      <point x="212" y="695"/>
      <point x="110" y="695" type="curve"/>
    </contour>
    <contour>
      <point x="220" y="363" type="curve" smooth="yes"/>
      <point x="256" y="363"/>
      <point x="298" y="336"/>
      <point x="331" y="281" type="curve"/>
      <point x="331" y="148" type="line" smooth="yes"/>
      <point x="331" y="90"/>
      <point x="303" y="59"/>
      <point x="243" y="59" type="curve" smooth="yes"/>
      <point x="186" y="59"/>
      <point x="155" y="87"/>
      <point x="155" y="148" type="curve" smooth="yes"/>
      <point x="155" y="260" type="line" smooth="yes"/>
      <point x="155" y="333"/>
      <point x="181" y="363"/>
    </contour>
  </outline>
</glyph>
<glyph name="divide" format="1">
  <advance width="390"/>
  <unicode hex="00F7"/>
  <outline>
    <contour>
      <point x="372" y="335" type="line"/>
      <point x="18" y="335" type="line"/>
      <point x="18" y="265" type="line"/>
      <point x="372" y="265" type="line"/>
    </contour>
    <contour>
      <point x="195" y="215" type="curve" smooth="yes"/>
      <point x="163" y="215"/>
      <point x="147" y="198"/>
      <point x="147" y="171" type="curve" smooth="yes"/>
      <point x="147" y="154" type="line" smooth="yes"/>
      <point x="147" y="128"/>
      <point x="163" y="111"/>
      <point x="195" y="111" type="curve" smooth="yes"/>
      <point x="228" y="111"/>
      <point x="244" y="128"/>
      <point x="244" y="154" type="curve" smooth="yes"/>
      <point x="244" y="171" type="line" smooth="yes"/>
      <point x="244" y="198"/>
      <point x="228" y="215"/>
    </contour>
    <contour>
      <point x="195" y="489" type="curve" smooth="yes"/>
      <point x="163" y="489"/>
      <point x="147" y="472"/>
      <point x="147" y="445" type="curve" smooth="yes"/>
      <point x="147" y="428" type="line" smooth="yes"/>
      <point x="147" y="402"/>
      <point x="163" y="385"/>
      <point x="195" y="385" type="curve" smooth="yes"/>
      <point x="228" y="385"/>
      <point x="244" y="402"/>
      <point x="244" y="428" type="curve" smooth="yes"/>
      <point x="244" y="445" type="line" smooth="yes"/>
      <point x="244" y="472"/>
      <point x="228" y="489"/>
    </contour>
  </outline>
</glyph>
<glyph name="thorn" format="1">
  <advance width="475"/>
  <unicode hex="00FE"/>
  <outline>
    <contour>
      <point x="155" y="683" type="line"/>
      <point x="70" y="683" type="line"/>
      <point x="70" y="-185" type="line"/>
      <point x="155" y="-185" type="line"/>
      <point x="155" y="23" type="line"/>
      <point x="184" y="6"/>
      <point x="228" y="-12"/>
      <point x="265" y="-12" type="curve" smooth="yes"/>
      <point x="356" y="-12"/>
      <point x="415" y="50"/>
      <point x="415" y="155" type="curve" smooth="yes"/>
      <point x="415" y="333" type="line" smooth="yes"/>
      <point x="415" y="443"/>
      <point x="365" y="500"/>
      <point x="282" y="500" type="curve" smooth="yes"/>
      <point x="233" y="500"/>
      <point x="189" y="473"/>
      <point x="155" y="424" type="curve"/>
    </contour>
    <contour>
      <point x="265" y="424" type="curve" smooth="yes"/>
      <point x="303" y="424"/>
      <point x="330" y="396"/>
      <point x="330" y="321" type="curve" smooth="yes"/>
      <point x="330" y="167" type="line" smooth="yes"/>
      <point x="330" y="97"/>
      <point x="303" y="63"/>
      <point x="248" y="63" type="curve" smooth="yes"/>
      <point x="220" y="63"/>
      <point x="184" y="76"/>
      <point x="155" y="99" type="curve"/>
      <point x="155" y="344" type="line"/>
      <point x="184" y="394"/>
      <point x="226" y="424"/>
    </contour>
  </outline>
</glyph>
<glyph name="dcaron" format="1">
  <advance width="520"/>
  <unicode hex="010F"/>
  <outline>
    <contour>
      <point x="238" y="244" type="move" name="center"/>
    </contour>
    <contour>
      <point x="486" y="488" type="move" name="topleft"/>
    </contour>
    <contour>
      <point x="406" y="683" type="line"/>
      <point x="321" y="683" type="line"/>
      <point x="321" y="450" type="line"/>
      <point x="291" y="473"/>
      <point x="244" y="500"/>
      <point x="201" y="500" type="curve" smooth="yes"/>
      <point x="109" y="500"/>
      <point x="60" y="437"/>
      <point x="60" y="333" type="curve" smooth="yes"/>
      <point x="60" y="155" type="line" smooth="yes"/>
      <point x="60" y="45"/>
      <point x="106" y="-12"/>
      <point x="188" y="-12" type="curve" smooth="yes"/>
      <point x="240" y="-12"/>
      <point x="286" y="20"/>
      <point x="325" y="79" type="curve"/>
      <point x="325" y="0" type="line"/>
      <point x="406" y="0" type="line"/>
    </contour>
    <contour>
      <point x="220" y="424" type="curve" smooth="yes"/>
      <point x="251" y="424"/>
      <point x="293" y="403"/>
      <point x="321" y="374" type="curve"/>
      <point x="321" y="154" type="line"/>
      <point x="289" y="96"/>
      <point x="247" y="64"/>
      <point x="208" y="64" type="curve" smooth="yes"/>
      <point x="171" y="64"/>
      <point x="145" y="90"/>
      <point x="145" y="166" type="curve" smooth="yes"/>
      <point x="145" y="321" type="line" smooth="yes"/>
      <point x="145" y="393"/>
      <point x="174" y="424"/>
    </contour>
    <contour>
      <point x="486" y="695" type="curve" smooth="yes"/>
      <point x="459" y="695"/>
      <point x="442" y="680"/>
      <point x="442" y="659" type="curve" smooth="yes"/>
      <point x="442" y="634" type="line" smooth="yes"/>
      <point x="442" y="613"/>
      <point x="450" y="603"/>
      <point x="471" y="596" type="curve"/>
      <point x="454" y="520" type="line"/>
      <point x="505" y="520" type="line"/>
      <point x="527" y="586" type="line" smooth="yes"/>
      <point x="532" y="602"/>
      <point x="535" y="615"/>
      <point x="535" y="633" type="curve" smooth="yes"/>
      <point x="535" y="659" type="line" smooth="yes"/>
      <point x="535" y="680"/>
      <point x="521" y="695"/>
    </contour>
  </outline>
</glyph>
<glyph name="dcroat" format="1">
  <advance width="481"/>
  <unicode hex="0111"/>
  <outline>
    <contour>
      <point x="406" y="683" type="line"/>
      <point x="321" y="683" type="line"/>
      <point x="321" y="623" type="line"/>
      <point x="201" y="623" type="line"/>
      <point x="201" y="553" type="line"/>
      <point x="321" y="553" type="line"/>
      <point x="321" y="450" type="line"/>
      <point x="291" y="473"/>
      <point x="244" y="500"/>
      <point x="201" y="500" type="curve" smooth="yes"/>
      <point x="109" y="500"/>
      <point x="60" y="437"/>
      <point x="60" y="333" type="curve" smooth="yes"/>
      <point x="60" y="155" type="line" smooth="yes"/>
      <point x="60" y="45"/>
      <point x="106" y="-12"/>
      <point x="188" y="-12" type="curve" smooth="yes"/>
      <point x="240" y="-12"/>
      <point x="286" y="20"/>
      <point x="325" y="79" type="curve"/>
      <point x="325" y="0" type="line"/>
      <point x="406" y="0" type="line"/>
      <point x="406" y="553" type="line"/>
      <point x="476" y="553" type="line"/>
      <point x="476" y="623" type="line"/>
      <point x="406" y="623" type="line"/>
    </contour>
    <contour>
      <point x="220" y="424" type="curve" smooth="yes"/>
      <point x="251" y="424"/>
      <point x="293" y="403"/>
      <point x="321" y="374" type="curve"/>
      <point x="321" y="154" type="line"/>
      <point x="289" y="96"/>
      <point x="247" y="64"/>
      <point x="208" y="64" type="curve" smooth="yes"/>
      <point x="171" y="64"/>
      <point x="145" y="90"/>
      <point x="145" y="166" type="curve" smooth="yes"/>
      <point x="145" y="321" type="line" smooth="yes"/>
      <point x="145" y="393"/>
      <point x="174" y="424"/>
    </contour>
  </outline>
</glyph>
<glyph name="eogonek" format="1">
  <advance width="447"/>
  <unicode hex="0119"/>
  <outline>
    <contour>
      <point x="230" y="500" type="curve" smooth="yes"/>
      <point x="115" y="500"/>
      <point x="60" y="436"/>
      <point x="60" y="321" type="curve" smooth="yes"/>
      <point x="60" y="164" type="line" smooth="yes"/>
      <point x="60" y="46"/>
      <point x="111" y="-12"/>
      <point x="246" y="-12" type="curve" smooth="yes"/>
      <point x="258" y="-12"/>
      <point x="271" y="-11"/>
      <point x="284" y="-10" type="curve"/>
      <point x="256" y="-35"/>
      <point x="239" y="-70"/>
      <point x="239" y="-103" type="curve" smooth="yes"/>
      <point x="239" y="-116" type="line" smooth="yes"/>
      <point x="239" y="-164"/>
      <point x="270" y="-197"/>
      <point x="338" y="-197" type="curve" smooth="yes"/>
      <point x="353" y="-197"/>
      <point x="369" y="-196"/>
      <point x="386" y="-192" type="curve"/>
      <point x="386" y="-131" type="line"/>
      <point x="374" y="-133"/>
      <point x="362" y="-134"/>
      <point x="353" y="-134" type="curve" smooth="yes"/>
      <point x="323" y="-134"/>
      <point x="311" y="-123"/>
      <point x="311" y="-97" type="curve" smooth="yes"/>
      <point x="311" y="-87" type="line" smooth="yes"/>
      <point x="311" y="-54"/>
      <point x="332" y="-12"/>
      <point x="379" y="7" type="curve"/>
      <point x="377" y="79" type="line"/>
      <point x="343" y="72"/>
      <point x="289" y="63"/>
      <point x="247" y="63" type="curve" smooth="yes"/>
      <point x="176" y="63"/>
      <point x="145" y="91"/>
      <point x="145" y="159" type="curve" smooth="yes"/>
      <point x="145" y="218" type="line"/>
      <point x="402" y="218" type="line"/>
      <point x="402" y="321" type="line" smooth="yes"/>
      <point x="402" y="437"/>
      <point x="342" y="500"/>
    </contour>
    <contour>
      <point x="230" y="429" type="curve" smooth="yes"/>
      <point x="282" y="429"/>
      <point x="317" y="397"/>
      <point x="317" y="331" type="curve" smooth="yes"/>
      <point x="317" y="286" type="line"/>
      <point x="145" y="286" type="line"/>
      <point x="145" y="334" type="line" smooth="yes"/>
      <point x="145" y="396"/>
      <point x="179" y="429"/>
    </contour>
  </outline>
</glyph>
<glyph name="Iogonek" format="1">
  <advance width="235"/>
  <unicode hex="012E"/>
  <outline>
    <contour>
      <point x="160" y="655" type="line"/>
      <point x="75" y="655" type="line"/>
      <point x="75" y="3" type="line"/>
      <point x="36" y="-22"/>
      <point x="13" y="-64"/>
      <point x="13" y="-103" type="curve" smooth="yes"/>
      <point x="13" y="-116" type="line" smooth="yes"/>
      <point x="13" y="-164"/>
      <point x="44" y="-197"/>
      <point x="112" y="-197" type="curve" smooth="yes"/>
      <point x="127" y="-197"/>
      <point x="143" y="-196"/>
      <point x="160" y="-192" type="curve"/>
      <point x="160" y="-131" type="line"/>
      <point x="148" y="-133"/>
      <point x="136" y="-134"/>
      <point x="127" y="-134" type="curve" smooth="yes"/>
      <point x="97" y="-134"/>
      <point x="85" y="-123"/>
      <point x="85" y="-97" type="curve" smooth="yes"/>
      <point x="85" y="-87" type="line" smooth="yes"/>
      <point x="85" y="-53"/>
      <point x="105" y="-19"/>
      <point x="141" y="0" type="curve"/>
      <point x="160" y="0" type="line"/>
    </contour>
  </outline>
</glyph>
<glyph name="iogonek" format="1">
  <advance width="225"/>
  <unicode hex="012F"/>
  <outline>
    <contour>
      <point x="155" y="488" type="line"/>
      <point x="70" y="488" type="line"/>
      <point x="70" y="2" type="line"/>
      <point x="32" y="-22"/>
      <point x="9" y="-64"/>
      <point x="9" y="-103" type="curve" smooth="yes"/>
      <point x="9" y="-116" type="line" smooth="yes"/>
      <point x="9" y="-164"/>
      <point x="40" y="-197"/>
      <point x="108" y="-197" type="curve" smooth="yes"/>
      <point x="123" y="-197"/>
      <point x="139" y="-196"/>
      <point x="156" y="-192" type="curve"/>
      <point x="156" y="-131" type="line"/>
      <point x="144" y="-133"/>
      <point x="132" y="-134"/>
      <point x="123" y="-134" type="curve" smooth="yes"/>
      <point x="93" y="-134"/>
      <point x="81" y="-123"/>
      <point x="81" y="-97" type="curve" smooth="yes"/>
      <point x="81" y="-87" type="line" smooth="yes"/>
      <point x="81" y="-53"/>
      <point x="101" y="-19"/>
      <point x="137" y="0" type="curve"/>
      <point x="155" y="0" type="line"/>
    </contour>
    <contour>
      <point x="112" y="695" type="curve" smooth="yes"/>
      <point x="77" y="695"/>
      <point x="57" y="679"/>
      <point x="57" y="649" type="curve" smooth="yes"/>
      <point x="57" y="620" type="line" smooth="yes"/>
      <point x="57" y="591"/>
      <point x="77" y="575"/>
      <point x="112" y="575" type="curve" smooth="yes"/>
      <point x="148" y="575"/>
      <point x="168" y="591"/>
      <point x="168" y="620" type="curve" smooth="yes"/>
      <point x="168" y="649" type="line" smooth="yes"/>
      <point x="168" y="679"/>
      <point x="148" y="695"/>
    </contour>
  </outline>
</glyph>
<glyph name="lcaron" format="1">
  <advance width="279"/>
  <unicode hex="013E"/>
  <outline>
    <contour>
      <point x="113" y="0" type="move" name="bottom"/>
    </contour>
    <contour>
      <point x="234" y="440" type="move" name="center"/>
    </contour>
    <contour>
      <point x="122" y="655" type="move" name="top"/>
    </contour>
    <contour>
      <point x="245" y="488" type="move" name="topleft"/>
    </contour>
    <contour>
      <point x="155" y="683" type="line"/>
      <point x="70" y="683" type="line"/>
      <point x="70" y="0" type="line"/>
      <point x="155" y="0" type="line"/>
    </contour>
    <contour>
      <point x="245" y="695" type="curve" smooth="yes"/>
      <point x="218" y="695"/>
      <point x="201" y="680"/>
      <point x="201" y="659" type="curve" smooth="yes"/>
      <point x="201" y="634" type="line" smooth="yes"/>
      <point x="201" y="613"/>
      <point x="209" y="603"/>
      <point x="230" y="596" type="curve"/>
      <point x="213" y="520" type="line"/>
      <point x="264" y="520" type="line"/>
      <point x="286" y="586" type="line" smooth="yes"/>
      <point x="291" y="602"/>
      <point x="294" y="615"/>
      <point x="294" y="633" type="curve" smooth="yes"/>
      <point x="294" y="659" type="line" smooth="yes"/>
      <point x="294" y="680"/>
      <point x="280" y="695"/>
    </contour>
  </outline>
</glyph>
<glyph name="Lslash" format="1">
  <advance width="455"/>
  <unicode hex="0141"/>
  <outline>
    <contour>
      <point x="165" y="655" type="line"/>
      <point x="80" y="655" type="line"/>
      <point x="80" y="363" type="line"/>
      <point x="10" y="344" type="line"/>
      <point x="10" y="268" type="line"/>
      <point x="80" y="287" type="line"/>
      <point x="80" y="0" type="line"/>
      <point x="425" y="0" type="line"/>
      <point x="425" y="75" type="line"/>
      <point x="165" y="75" type="line"/>
      <point x="165" y="311" type="line"/>
      <point x="295" y="348" type="line"/>
      <point x="295" y="424" type="line"/>
      <point x="165" y="387" type="line"/>
    </contour>
  </outline>
</glyph>
<glyph name="lslash" format="1">
  <advance width="235"/>
  <unicode hex="0142"/>
  <outline>
    <contour>
      <point x="160" y="683" type="line"/>
      <point x="75" y="683" type="line"/>
      <point x="75" y="425" type="line"/>
      <point x="-15" y="398" type="line"/>
      <point x="-15" y="328" type="line"/>
      <point x="75" y="355" type="line"/>
      <point x="75" y="0" type="line"/>
      <point x="160" y="0" type="line"/>
      <point x="160" y="380" type="line"/>
      <point x="250" y="408" type="line"/>
      <point x="250" y="478" type="line"/>
      <point x="160" y="450" type="line"/>
    </contour>
  </outline>
</glyph>
<glyph name="OE" format="1">
  <advance width="756"/>
  <unicode hex="0152"/>
  <outline>
    <contour>
      <point x="274" y="667" type="curve" smooth="yes"/>
      <point x="142" y="667"/>
      <point x="70" y="591"/>
      <point x="70" y="452" type="curve" smooth="yes"/>
      <point x="70" y="203" type="line" smooth="yes"/>
      <point x="70" y="66"/>
      <point x="138" y="-12"/>
      <point x="278" y="-12" type="curve" smooth="yes"/>
      <point x="312" y="-12"/>
      <point x="343" y="-8"/>
      <point x="370" y="0" type="curve"/>
      <point x="691" y="0" type="line"/>
      <point x="691" y="77" type="line"/>
      <point x="446" y="77" type="line"/>
      <point x="446" y="295" type="line"/>
      <point x="671" y="295" type="line"/>
      <point x="671" y="371" type="line"/>
      <point x="446" y="371" type="line"/>
      <point x="446" y="578" type="line"/>
      <point x="691" y="578" type="line"/>
      <point x="691" y="655" type="line"/>
      <point x="370" y="655" type="line"/>
      <point x="342" y="663"/>
      <point x="309" y="667"/>
    </contour>
    <contour>
      <point x="283" y="592" type="curve" smooth="yes"/>
      <point x="315" y="592"/>
      <point x="340" y="588"/>
      <point x="361" y="579" type="curve"/>
      <point x="361" y="71" type="line"/>
      <point x="341" y="65"/>
      <point x="317" y="63"/>
      <point x="283" y="63" type="curve" smooth="yes"/>
      <point x="199" y="63"/>
      <point x="155" y="110"/>
      <point x="155" y="194" type="curve" smooth="yes"/>
      <point x="155" y="462" type="line" smooth="yes"/>
      <point x="155" y="547"/>
      <point x="201" y="592"/>
    </contour>
  </outline>
</glyph>
<glyph name="Scedilla" format="1">
  <advance width="461"/>
  <unicode hex="015E"/>
  <outline>
    <contour>
      <point x="239" y="667" type="curve" smooth="yes"/>
      <point x="101" y="667"/>
      <point x="45" y="604"/>
      <point x="45" y="491" type="curve" smooth="yes"/>
      <point x="45" y="480" type="line" smooth="yes"/>
      <point x="45" y="381"/>
      <point x="76" y="340"/>
      <point x="168" y="310" type="curve" smooth="yes"/>
      <point x="271" y="276" type="line" smooth="yes"/>
      <point x="324" y="259"/>
      <point x="341" y="237"/>
      <point x="341" y="191" type="curve" smooth="yes"/>
      <point x="341" y="158" type="line" smooth="yes"/>
      <point x="341" y="97"/>
      <point x="307" y="65"/>
      <point x="204" y="65" type="curve" smooth="yes"/>
      <point x="170" y="65"/>
      <point x="116" y="72"/>
      <point x="62" y="85" type="curve"/>
      <point x="60" y="8" type="line"/>
      <point x="115" y="-4"/>
      <point x="168" y="-11"/>
      <point x="200" y="-12" type="curve"/>
      <point x="186" y="-59" type="line"/>
      <point x="186" y="-80" type="line"/>
      <point x="216" y="-80" type="line" smooth="yes"/>
      <point x="239" y="-80"/>
      <point x="249" y="-86"/>
      <point x="250" y="-106" type="curve" smooth="yes"/>
      <point x="250" y="-119" type="line" smooth="yes"/>
      <point x="250" y="-133"/>
      <point x="238" y="-143"/>
      <point x="209" y="-143" type="curve" smooth="yes"/>
      <point x="199" y="-143"/>
      <point x="187" y="-141"/>
      <point x="173" y="-139" type="curve"/>
      <point x="173" y="-192" type="line"/>
      <point x="191" y="-195"/>
      <point x="206" y="-197"/>
      <point x="222" y="-197" type="curve" smooth="yes"/>
      <point x="286" y="-197"/>
      <point x="317" y="-173"/>
      <point x="317" y="-120" type="curve"/>
      <point x="317" y="-105" type="line" smooth="yes"/>
      <point x="317" y="-67"/>
      <point x="293" y="-41"/>
      <point x="265" y="-41" type="curve" smooth="yes"/>
      <point x="255" y="-41" type="line"/>
      <point x="265" y="-8" type="line"/>
      <point x="381" y="6"/>
      <point x="426" y="66"/>
      <point x="426" y="165" type="curve" smooth="yes"/>
      <point x="426" y="184" type="line" smooth="yes"/>
      <point x="426" y="282"/>
      <point x="393" y="326"/>
      <point x="304" y="356" type="curve" smooth="yes"/>
      <point x="211" y="387" type="line" smooth="yes"/>
      <point x="144" y="409"/>
      <point x="130" y="425"/>
      <point x="130" y="473" type="curve" smooth="yes"/>
      <point x="130" y="499" type="line" smooth="yes"/>
      <point x="130" y="560"/>
      <point x="159" y="592"/>
      <point x="239" y="592" type="curve" smooth="yes"/>
      <point x="279" y="592"/>
      <point x="332" y="585"/>
      <point x="378" y="576" type="curve"/>
      <point x="380" y="651" type="line"/>
      <point x="331" y="660"/>
      <point x="273" y="667"/>
    </contour>
  </outline>
</glyph>
<glyph name="uogonek" format="1">
  <advance width="483"/>
  <unicode hex="0173"/>
  <outline>
    <contour>
      <point x="410" y="488" type="line"/>
      <point x="325" y="488" type="line"/>
      <point x="325" y="148" type="line"/>
      <point x="295" y="97"/>
      <point x="253" y="67"/>
      <point x="217" y="67" type="curve" smooth="yes"/>
      <point x="180" y="67"/>
      <point x="155" y="97"/>
      <point x="155" y="170" type="curve" smooth="yes"/>
      <point x="155" y="488" type="line"/>
      <point x="70" y="488" type="line"/>
      <point x="70" y="155" type="line" smooth="yes"/>
      <point x="70" y="43"/>
      <point x="121" y="-12"/>
      <point x="200" y="-12" type="curve" smooth="yes"/>
      <point x="249" y="-12"/>
      <point x="294" y="17"/>
      <point x="330" y="70" type="curve"/>
      <point x="330" y="4" type="line"/>
      <point x="290" y="-20"/>
      <point x="266" y="-63"/>
      <point x="266" y="-103" type="curve" smooth="yes"/>
      <point x="266" y="-116" type="line" smooth="yes"/>
      <point x="266" y="-164"/>
      <point x="297" y="-197"/>
      <point x="365" y="-197" type="curve" smooth="yes"/>
      <point x="380" y="-197"/>
      <point x="396" y="-196"/>
      <point x="413" y="-192" type="curve"/>
      <point x="413" y="-131" type="line"/>
      <point x="401" y="-133"/>
      <point x="389" y="-134"/>
      <point x="380" y="-134" type="curve" smooth="yes"/>
      <point x="350" y="-134"/>
      <point x="338" y="-123"/>
      <point x="338" y="-97" type="curve" smooth="yes"/>
      <point x="338" y="-87" type="line" smooth="yes"/>
      <point x="338" y="-53"/>
      <point x="358" y="-19"/>
      <point x="394" y="0" type="curve"/>
      <point x="410" y="0" type="line"/>
    </contour>
  </outline>
</glyph>
<glyph name="florin" format="1">
  <advance width="313"/>
  <unicode hex="0192"/>
  <outline>
    <contour>
      <point x="240" y="613" type="curve" smooth="yes"/>
      <point x="144" y="613"/>
      <point x="91" y="562"/>
      <point x="90" y="457" type="curve"/>
      <point x="90" y="406" type="line"/>
      <point x="20" y="406" type="line"/>
      <point x="20" y="336" type="line"/>
      <point x="90" y="336" type="line"/>
      <point x="90" y="-185" type="line"/>
      <point x="175" y="-185" type="line"/>
      <point x="175" y="336" type="line"/>
      <point x="275" y="336" type="line"/>
      <point x="275" y="406" type="line"/>
      <point x="175" y="406" type="line"/>
      <point x="175" y="462" type="line" smooth="yes"/>
      <point x="175" y="517"/>
      <point x="201" y="543"/>
      <point x="241" y="543" type="curve" smooth="yes"/>
      <point x="265" y="543"/>
      <point x="285" y="541"/>
      <point x="303" y="538" type="curve"/>
      <point x="303" y="606" type="line"/>
      <point x="290" y="609"/>
      <point x="264" y="613"/>
    </contour>
  </outline>
</glyph>
<glyph name="afii57929" format="1">
  <advance width="183"/>
  <unicode hex="02BC"/>
  <outline>
    <contour>
      <point x="97" y="488" type="move" name="_apo"/>
    </contour>
    <contour>
      <point x="104" y="695" type="curve" smooth="yes"/>
      <point x="77" y="695"/>
      <point x="60" y="680"/>
      <point x="60" y="659" type="curve" smooth="yes"/>
      <point x="60" y="634" type="line" smooth="yes"/>
      <point x="60" y="613"/>
      <point x="68" y="603"/>
      <point x="89" y="596" type="curve"/>
      <point x="72" y="520" type="line"/>
      <point x="123" y="520" type="line"/>
      <point x="145" y="586" type="line" smooth="yes"/>
      <point x="150" y="602"/>
      <point x="153" y="615"/>
      <point x="153" y="633" type="curve" smooth="yes"/>
      <point x="153" y="659" type="line" smooth="yes"/>
      <point x="153" y="680"/>
      <point x="139" y="695"/>
    </contour>
  </outline>
</glyph>
<glyph name="caron" format="1">
  <advance width="320"/>
  <unicode hex="02C7"/>
  <outline>
    <contour>
      <point x="160" y="488" type="move" name="_top"/>
    </contour>
    <contour>
      <point x="290" y="690" type="line"/>
      <point x="160" y="625" type="line"/>
      <point x="30" y="690" type="line"/>
      <point x="30" y="620" type="line"/>
      <point x="160" y="546" type="line"/>
      <point x="290" y="620" type="line"/>
    </contour>
  </outline>
</glyph>
<glyph name="uni02C9" format="1">
  <advance width="275"/>
  <unicode hex="02C9"/>
  <outline>
    <contour>
      <point x="138" y="488" type="move" name="_top"/>
    </contour>
    <contour>
      <point x="245" y="681" type="line"/>
      <point x="30" y="681" type="line"/>
      <point x="30" y="606" type="line"/>
      <point x="245" y="606" type="line"/>
    </contour>
  </outline>
</glyph>
<glyph name="breve" format="1">
  <advance width="308"/>
  <unicode hex="02D8"/>
  <outline>
    <contour>
      <point x="154" y="488" type="move" name="_top"/>
    </contour>
    <contour>
      <point x="278" y="688" type="line"/>
      <point x="278" y="688"/>
      <point x="231" y="627"/>
      <point x="154" y="627" type="curve" smooth="yes"/>
      <point x="77" y="627"/>
      <point x="30" y="688"/>
      <point x="30" y="688" type="curve"/>
      <point x="30" y="610" type="line"/>
      <point x="30" y="610"/>
      <point x="68" y="556"/>
      <point x="154" y="556" type="curve" smooth="yes"/>
      <point x="240" y="556"/>
      <point x="278" y="610"/>
      <point x="278" y="610" type="curve"/>
    </contour>
  </outline>
</glyph>
<glyph name="dotaccent" format="1">
  <advance width="171"/>
  <unicode hex="02D9"/>
  <outline>
    <contour>
      <point x="86" y="625" type="move" name="_center"/>
    </contour>
    <contour>
      <point x="86" y="488" type="move" name="_top"/>
    </contour>
    <contour>
      <point x="85" y="685" type="curve" smooth="yes"/>
      <point x="50" y="685"/>
      <point x="30" y="669"/>
      <point x="30" y="639" type="curve" smooth="yes"/>
      <point x="30" y="610" type="line" smooth="yes"/>
      <point x="30" y="581"/>
      <point x="50" y="565"/>
      <point x="85" y="565" type="curve" smooth="yes"/>
      <point x="121" y="565"/>
      <point x="141" y="581"/>
      <point x="141" y="610" type="curve" smooth="yes"/>
      <point x="141" y="639" type="line" smooth="yes"/>
      <point x="141" y="669"/>
      <point x="121" y="685"/>
    </contour>
  </outline>
</glyph>
<glyph name="hungarumlaut" format="1">
  <advance width="339"/>
  <unicode hex="02DD"/>
  <outline>
    <contour>
      <point x="138" y="488" type="move" name="_top"/>
    </contour>
    <contour>
      <point x="309" y="685" type="line"/>
      <point x="223" y="685" type="line"/>
      <point x="164" y="546" type="line"/>
      <point x="236" y="546" type="line"/>
    </contour>
    <contour>
      <point x="175" y="685" type="line"/>
      <point x="89" y="685" type="line"/>
      <point x="30" y="546" type="line"/>
      <point x="102" y="546" type="line"/>
    </contour>
  </outline>
</glyph>
<glyph name="commaaccentcomb" format="1">
  <advance width="0"/>
  <unicode hex="0326"/>
  <outline>
    <contour>
      <point x="-76" y="0" type="move" name="_bottom"/>
    </contour>
    <contour>
      <point x="-79" y="-56" type="curve" smooth="yes"/>
      <point x="-106" y="-56"/>
      <point x="-123" y="-71"/>
      <point x="-123" y="-92" type="curve" smooth="yes"/>
      <point x="-123" y="-117" type="line" smooth="yes"/>
      <point x="-123" y="-138"/>
      <point x="-115" y="-148"/>
      <point x="-94" y="-155" type="curve"/>
      <point x="-111" y="-231" type="line"/>
      <point x="-60" y="-231" type="line"/>
      <point x="-38" y="-165" type="line" smooth="yes"/>
      <point x="-33" y="-149"/>
      <point x="-30" y="-136"/>
      <point x="-30" y="-118" type="curve" smooth="yes"/>
      <point x="-30" y="-92" type="line" smooth="yes"/>
      <point x="-30" y="-71"/>
      <point x="-44" y="-56"/>
    </contour>
  </outline>
</glyph>
<glyph name="endash" format="1">
  <advance width="610"/>
  <unicode hex="2013"/>
  <outline>
    <contour>
      <point x="545" y="328" type="line"/>
      <point x="65" y="328" type="line"/>
      <point x="65" y="263" type="line"/>
      <point x="545" y="263" type="line"/>
    </contour>
  </outline>
</glyph>
<glyph name="emdash" format="1">
  <advance width="710"/>
  <unicode hex="2014"/>
  <outline>
    <contour>
      <point x="645" y="328" type="line"/>
      <point x="65" y="328" type="line"/>
      <point x="65" y="263" type="line"/>
      <point x="645" y="263" type="line"/>
    </contour>
  </outline>
</glyph>
<glyph name="quoteleft" format="1">
  <advance width="217"/>
  <unicode hex="2018"/>
  <outline>
    <contour>
      <point x="151" y="696" type="line"/>
      <point x="92" y="696" type="line"/>
      <point x="62" y="607" type="line" smooth="yes"/>
      <point x="57" y="591"/>
      <point x="55" y="577"/>
      <point x="55" y="557" type="curve" smooth="yes"/>
      <point x="55" y="527" type="line" smooth="yes"/>
      <point x="55" y="498"/>
      <point x="74" y="483"/>
      <point x="109" y="483" type="curve" smooth="yes"/>
      <point x="143" y="483"/>
      <point x="162" y="498"/>
      <point x="162" y="527" type="curve" smooth="yes"/>
      <point x="162" y="555" type="line" smooth="yes"/>
      <point x="162" y="578"/>
      <point x="150" y="592"/>
      <point x="128" y="597" type="curve"/>
    </contour>
  </outline>
</glyph>
<glyph name="quoteright" format="1">
  <advance width="217"/>
  <unicode hex="2019"/>
  <outline>
    <contour>
      <point x="108" y="695" type="curve" smooth="yes"/>
      <point x="74" y="695"/>
      <point x="55" y="680"/>
      <point x="55" y="651" type="curve" smooth="yes"/>
      <point x="55" y="623" type="line" smooth="yes"/>
      <point x="55" y="600"/>
      <point x="67" y="586"/>
      <point x="89" y="581" type="curve"/>
      <point x="66" y="482" type="line"/>
      <point x="125" y="482" type="line"/>
      <point x="155" y="571" type="line" smooth="yes"/>
      <point x="160" y="587"/>
      <point x="162" y="601"/>
      <point x="162" y="621" type="curve" smooth="yes"/>
      <point x="162" y="651" type="line" smooth="yes"/>
      <point x="162" y="680"/>
      <point x="143" y="695"/>
    </contour>
  </outline>
</glyph>
<glyph name="quotedblleft" format="1">
  <advance width="362"/>
  <unicode hex="201C"/>
  <outline>
    <contour>
      <point x="296" y="695" type="line"/>
      <point x="237" y="695" type="line"/>
      <point x="207" y="606" type="line" smooth="yes"/>
      <point x="202" y="590"/>
      <point x="200" y="576"/>
      <point x="200" y="556" type="curve" smooth="yes"/>
      <point x="200" y="526" type="line" smooth="yes"/>
      <point x="200" y="497"/>
      <point x="219" y="482"/>
      <point x="254" y="482" type="curve" smooth="yes"/>
      <point x="288" y="482"/>
      <point x="307" y="497"/>
      <point x="307" y="526" type="curve" smooth="yes"/>
      <point x="307" y="554" type="line" smooth="yes"/>
      <point x="307" y="577"/>
      <point x="295" y="591"/>
      <point x="273" y="596" type="curve"/>
    </contour>
    <contour>
      <point x="151" y="695" type="line"/>
      <point x="92" y="695" type="line"/>
      <point x="62" y="606" type="line" smooth="yes"/>
      <point x="57" y="590"/>
      <point x="55" y="576"/>
      <point x="55" y="556" type="curve" smooth="yes"/>
      <point x="55" y="526" type="line" smooth="yes"/>
      <point x="55" y="497"/>
      <point x="74" y="482"/>
      <point x="109" y="482" type="curve" smooth="yes"/>
      <point x="143" y="482"/>
      <point x="162" y="497"/>
      <point x="162" y="526" type="curve" smooth="yes"/>
      <point x="162" y="554" type="line" smooth="yes"/>
      <point x="162" y="577"/>
      <point x="150" y="591"/>
      <point x="128" y="596" type="curve"/>
    </contour>
  </outline>
</glyph>
<glyph name="quotedblright" format="1">
  <advance width="362"/>
  <unicode hex="201D"/>
  <outline>
    <contour>
      <point x="253" y="695" type="curve" smooth="yes"/>
      <point x="219" y="695"/>
      <point x="200" y="680"/>
      <point x="200" y="651" type="curve" smooth="yes"/>
      <point x="200" y="623" type="line" smooth="yes"/>
      <point x="200" y="600"/>
      <point x="212" y="586"/>
      <point x="234" y="581" type="curve"/>
      <point x="211" y="482" type="line"/>
      <point x="270" y="482" type="line"/>
      <point x="300" y="571" type="line" smooth="yes"/>
      <point x="305" y="587"/>
      <point x="307" y="601"/>
      <point x="307" y="621" type="curve" smooth="yes"/>
      <point x="307" y="651" type="line" smooth="yes"/>
      <point x="307" y="680"/>
      <point x="288" y="695"/>
    </contour>
    <contour>
      <point x="108" y="695" type="curve" smooth="yes"/>
      <point x="74" y="695"/>
      <point x="55" y="680"/>
      <point x="55" y="651" type="curve" smooth="yes"/>
      <point x="55" y="623" type="line" smooth="yes"/>
      <point x="55" y="600"/>
      <point x="67" y="586"/>
      <point x="89" y="581" type="curve"/>
      <point x="66" y="482" type="line"/>
      <point x="125" y="482" type="line"/>
      <point x="155" y="571" type="line" smooth="yes"/>
      <point x="160" y="587"/>
      <point x="162" y="601"/>
      <point x="162" y="621" type="curve" smooth="yes"/>
      <point x="162" y="651" type="line" smooth="yes"/>
      <point x="162" y="680"/>
      <point x="143" y="695"/>
    </contour>
  </outline>
</glyph>
<glyph name="perthousand" format="1">
  <advance width="1240"/>
  <unicode hex="2030"/>
  <outline>
    <contour>
      <point x="649" y="613" type="line"/>
      <point x="562" y="613" type="line"/>
      <point x="227" y="0" type="line"/>
      <point x="314" y="0" type="line"/>
    </contour>
    <contour>
      <point x="203" y="625" type="curve" smooth="yes"/>
      <point x="98" y="625"/>
      <point x="45" y="567"/>
      <point x="45" y="465" type="curve" smooth="yes"/>
      <point x="45" y="435" type="line" smooth="yes"/>
      <point x="45" y="333"/>
      <point x="98" y="275"/>
      <point x="203" y="275" type="curve" smooth="yes"/>
      <point x="308" y="275"/>
      <point x="360" y="333"/>
      <point x="360" y="435" type="curve"/>
      <point x="360" y="465" type="line" smooth="yes"/>
      <point x="360" y="567"/>
      <point x="308" y="625"/>
    </contour>
    <contour>
      <point x="203" y="550" type="curve" smooth="yes"/>
      <point x="251" y="550"/>
      <point x="275" y="526"/>
      <point x="275" y="465" type="curve" smooth="yes"/>
      <point x="275" y="435" type="line" smooth="yes"/>
      <point x="275" y="375"/>
      <point x="251" y="350"/>
      <point x="203" y="350" type="curve" smooth="yes"/>
      <point x="154" y="350"/>
      <point x="130" y="375"/>
      <point x="130" y="435" type="curve" smooth="yes"/>
      <point x="130" y="465" type="line" smooth="yes"/>
      <point x="130" y="525"/>
      <point x="155" y="550"/>
    </contour>
    <contour>
      <point x="673" y="338" type="curve" smooth="yes"/>
      <point x="568" y="338"/>
      <point x="515" y="280"/>
      <point x="515" y="178" type="curve" smooth="yes"/>
      <point x="515" y="148" type="line" smooth="yes"/>
      <point x="515" y="46"/>
      <point x="568" y="-12"/>
      <point x="673" y="-12" type="curve" smooth="yes"/>
      <point x="778" y="-12"/>
      <point x="830" y="46"/>
      <point x="830" y="148" type="curve"/>
      <point x="830" y="178" type="line" smooth="yes"/>
      <point x="830" y="280"/>
      <point x="778" y="338"/>
    </contour>
    <contour>
      <point x="673" y="263" type="curve" smooth="yes"/>
      <point x="721" y="263"/>
      <point x="745" y="239"/>
      <point x="745" y="178" type="curve" smooth="yes"/>
      <point x="745" y="148" type="line" smooth="yes"/>
      <point x="745" y="88"/>
      <point x="721" y="63"/>
      <point x="673" y="63" type="curve" smooth="yes"/>
      <point x="624" y="63"/>
      <point x="600" y="88"/>
      <point x="600" y="148" type="curve" smooth="yes"/>
      <point x="600" y="178" type="line" smooth="yes"/>
      <point x="600" y="238"/>
      <point x="625" y="263"/>
    </contour>
    <contour>
      <point x="1053" y="338" type="curve" smooth="yes"/>
      <point x="948" y="338"/>
      <point x="895" y="280"/>
      <point x="895" y="178" type="curve" smooth="yes"/>
      <point x="895" y="148" type="line" smooth="yes"/>
      <point x="895" y="46"/>
      <point x="948" y="-12"/>
      <point x="1053" y="-12" type="curve" smooth="yes"/>
      <point x="1158" y="-12"/>
      <point x="1210" y="46"/>
      <point x="1210" y="148" type="curve"/>
      <point x="1210" y="178" type="line" smooth="yes"/>
      <point x="1210" y="280"/>
      <point x="1158" y="338"/>
    </contour>
    <contour>
      <point x="1053" y="263" type="curve" smooth="yes"/>
      <point x="1101" y="263"/>
      <point x="1125" y="239"/>
      <point x="1125" y="178" type="curve" smooth="yes"/>
      <point x="1125" y="148" type="line" smooth="yes"/>
      <point x="1125" y="88"/>
      <point x="1101" y="63"/>
      <point x="1053" y="63" type="curve" smooth="yes"/>
      <point x="1004" y="63"/>
      <point x="980" y="88"/>
      <point x="980" y="148" type="curve" smooth="yes"/>
      <point x="980" y="178" type="line" smooth="yes"/>
      <point x="980" y="238"/>
      <point x="1005" y="263"/>
    </contour>
  </outline>
</glyph>
<glyph name="guilsinglleft" format="1">
  <advance width="318"/>
  <unicode hex="2039"/>
  <outline>
    <contour>
      <point x="253" y="438" type="line"/>
      <point x="165" y="438" type="line"/>
      <point x="65" y="268" type="line"/>
      <point x="165" y="98" type="line"/>
      <point x="253" y="98" type="line"/>
      <point x="160" y="268" type="line"/>
    </contour>
  </outline>
</glyph>
<glyph name="guilsinglright" format="1">
  <advance width="318"/>
  <unicode hex="203A"/>
  <outline>
    <contour>
      <point x="153" y="438" type="line"/>
      <point x="65" y="438" type="line"/>
      <point x="158" y="268" type="line"/>
      <point x="65" y="98" type="line"/>
      <point x="153" y="98" type="line"/>
      <point x="253" y="268" type="line"/>
    </contour>
  </outline>
</glyph>
<glyph name="fraction" format="1">
  <advance width="380"/>
  <unicode hex="2044"/>
  <outline>
    <contour>
      <point x="384" y="601" type="line"/>
      <point x="301" y="601" type="line"/>
      <point x="-4" y="0" type="line"/>
      <point x="79" y="0" type="line"/>
    </contour>
  </outline>
</glyph>
<glyph name="trademark" format="1">
  <advance width="773"/>
  <unicode hex="2122"/>
  <outline>
    <contour>
      <point x="726" y="683" type="line"/>
      <point x="643" y="683" type="line"/>
      <point x="560" y="455" type="line"/>
      <point x="476" y="683" type="line"/>
      <point x="393" y="683" type="line"/>
      <point x="386" y="350" type="line"/>
      <point x="455" y="350" type="line"/>
      <point x="459" y="557" type="line"/>
      <point x="524" y="381" type="line"/>
      <point x="594" y="381" type="line"/>
      <point x="660" y="557" type="line"/>
      <point x="659" y="350" type="line"/>
      <point x="728" y="350" type="line"/>
    </contour>
    <contour>
      <point x="341" y="683" type="line"/>
      <point x="45" y="683" type="line"/>
      <point x="45" y="625" type="line"/>
      <point x="157" y="625" type="line"/>
      <point x="157" y="350" type="line"/>
      <point x="230" y="350" type="line"/>
      <point x="230" y="625" type="line"/>
      <point x="341" y="625" type="line"/>
    </contour>
  </outline>
</glyph>
<glyph name="uni2126" format="1">
  <advance width="578"/>
  <unicode hex="2126"/>
  <outline>
    <contour>
      <point x="289" y="667" type="curve" smooth="yes"/>
      <point x="139" y="667"/>
      <point x="70" y="587"/>
      <point x="70" y="455" type="curve" smooth="yes"/>
      <point x="70" y="241" type="line" smooth="yes"/>
      <point x="70" y="164"/>
      <point x="81" y="121"/>
      <point x="133" y="80" type="curve"/>
      <point x="60" y="80" type="line"/>
      <point x="60" y="0" type="line"/>
      <point x="260" y="0" type="line"/>
      <point x="260" y="77" type="line"/>
      <point x="251" y="77" type="line" smooth="yes"/>
      <point x="192" y="77"/>
      <point x="155" y="133"/>
      <point x="155" y="214" type="curve" smooth="yes"/>
      <point x="155" y="465" type="line" smooth="yes"/>
      <point x="155" y="550"/>
      <point x="204" y="594"/>
      <point x="289" y="594" type="curve" smooth="yes"/>
      <point x="374" y="594"/>
      <point x="423" y="550"/>
      <point x="423" y="465" type="curve" smooth="yes"/>
      <point x="423" y="214" type="line" smooth="yes"/>
      <point x="423" y="133"/>
      <point x="386" y="77"/>
      <point x="327" y="77" type="curve" smooth="yes"/>
      <point x="318" y="77" type="line"/>
      <point x="318" y="0" type="line"/>
      <point x="518" y="0" type="line"/>
      <point x="518" y="80" type="line"/>
      <point x="445" y="80" type="line"/>
      <point x="497" y="121"/>
      <point x="508" y="164"/>
      <point x="508" y="241" type="curve" smooth="yes"/>
      <point x="508" y="455" type="line" smooth="yes"/>
      <point x="508" y="587"/>
      <point x="439" y="667"/>
    </contour>
  </outline>
</glyph>
<glyph name="estimated" format="1">
  <advance width="955"/>
  <unicode hex="212E"/>
  <outline>
    <contour>
      <point x="477" y="703" type="curve" smooth="yes"/>
      <point x="256" y="703"/>
      <point x="75" y="545"/>
      <point x="75" y="335" type="curve" smooth="yes"/>
      <point x="75" y="125"/>
      <point x="248" y="-27"/>
      <point x="477" y="-27" type="curve" smooth="yes"/>
      <point x="616" y="-27"/>
      <point x="723" y="25"/>
      <point x="796" y="110" type="curve"/>
      <point x="738" y="110" type="line"/>
      <point x="682" y="45"/>
      <point x="572" y="12"/>
      <point x="478" y="12" type="curve" smooth="yes"/>
      <point x="384" y="12"/>
      <point x="265" y="46"/>
      <point x="223" y="109" type="curve"/>
      <point x="223" y="327" type="line"/>
      <point x="880" y="327" type="line"/>
      <point x="880" y="550"/>
      <point x="691" y="703"/>
    </contour>
    <contour>
      <point x="478" y="664" type="curve" smooth="yes"/>
      <point x="595" y="664"/>
      <point x="676" y="623"/>
      <point x="732" y="562" type="curve"/>
      <point x="732" y="367" type="line"/>
      <point x="223" y="367" type="line"/>
      <point x="223" y="563" type="line"/>
      <point x="274" y="625"/>
      <point x="361" y="664"/>
    </contour>
  </outline>
</glyph>
<glyph name="uni2206" format="1">
  <advance width="530"/>
  <unicode hex="2206"/>
  <outline>
    <contour>
      <point x="315" y="655" type="line"/>
      <point x="214" y="655" type="line"/>
      <point x="24" y="55" type="line"/>
      <point x="24" y="0" type="line"/>
      <point x="506" y="0" type="line"/>
      <point x="506" y="57" type="line"/>
    </contour>
    <contour>
      <point x="265" y="577" type="line"/>
      <point x="409" y="76" type="line"/>
      <point x="115" y="76" type="line"/>
    </contour>
  </outline>
</glyph>
<glyph name="product" format="1">
  <advance width="575"/>
  <unicode hex="220F"/>
  <outline>
    <contour>
      <point x="580" y="655" type="line"/>
      <point x="-5" y="655" type="line"/>
      <point x="-5" y="575" type="line"/>
      <point x="85" y="575" type="line"/>
      <point x="85" y="-185" type="line"/>
      <point x="170" y="-185" type="line"/>
      <point x="170" y="575" type="line"/>
      <point x="405" y="575" type="line"/>
      <point x="405" y="-185" type="line"/>
      <point x="490" y="-185" type="line"/>
      <point x="490" y="575" type="line"/>
      <point x="580" y="575" type="line"/>
    </contour>
  </outline>
</glyph>
<glyph name="summation" format="1">
  <advance width="399"/>
  <unicode hex="2211"/>
  <outline>
    <contour>
      <point x="394" y="655" type="line"/>
      <point x="5" y="655" type="line"/>
      <point x="5" y="588" type="line"/>
      <point x="208" y="236" type="line"/>
      <point x="5" y="-118" type="line"/>
      <point x="5" y="-185" type="line"/>
      <point x="394" y="-185" type="line"/>
      <point x="394" y="-108" type="line"/>
      <point x="103" y="-108" type="line"/>
      <point x="295" y="217" type="line"/>
      <point x="295" y="256" type="line"/>
      <point x="106" y="578" type="line"/>
      <point x="394" y="578" type="line"/>
    </contour>
  </outline>
</glyph>
<glyph name="minus" format="1">
  <advance width="390"/>
  <unicode hex="2212"/>
  <outline>
    <contour>
      <point x="372" y="335" type="line"/>
      <point x="18" y="335" type="line"/>
      <point x="18" y="265" type="line"/>
      <point x="372" y="265" type="line"/>
    </contour>
  </outline>
</glyph>
<glyph name="uni2215" format="1">
  <advance width="255"/>
  <unicode hex="2215"/>
  <outline>
    <contour>
      <point x="273" y="683" type="line"/>
      <point x="188" y="683" type="line"/>
      <point x="-17" y="0" type="line"/>
      <point x="68" y="0" type="line"/>
    </contour>
  </outline>
</glyph>
<glyph name="radical" format="1">
  <advance width="480"/>
  <unicode hex="221A"/>
  <outline>
    <contour>
      <point x="560" y="683" type="line"/>
      <point x="415" y="683" type="line"/>
      <point x="220" y="62" type="line"/>
      <point x="110" y="488" type="line"/>
      <point x="20" y="488" type="line"/>
      <point x="164" y="0" type="line"/>
      <point x="274" y="0" type="line"/>
      <point x="476" y="613" type="line"/>
      <point x="560" y="613" type="line"/>
    </contour>
  </outline>
</glyph>
<glyph name="approxequal" format="1">
  <advance width="390"/>
  <unicode hex="2248"/>
  <outline>
    <contour>
      <point x="118" y="434" type="curve" smooth="yes"/>
      <point x="60" y="434"/>
      <point x="18" y="406"/>
      <point x="18" y="406" type="curve"/>
      <point x="18" y="336" type="line"/>
      <point x="18" y="336"/>
      <point x="79" y="361"/>
      <point x="116" y="361" type="curve" smooth="yes"/>
      <point x="184" y="361"/>
      <point x="201" y="333"/>
      <point x="272" y="333" type="curve" smooth="yes"/>
      <point x="330" y="333"/>
      <point x="372" y="361"/>
      <point x="372" y="361" type="curve"/>
      <point x="372" y="431" type="line"/>
      <point x="372" y="431"/>
      <point x="311" y="406"/>
      <point x="274" y="406" type="curve" smooth="yes"/>
      <point x="208" y="406"/>
      <point x="189" y="434"/>
    </contour>
    <contour>
      <point x="118" y="284" type="curve" smooth="yes"/>
      <point x="60" y="284"/>
      <point x="18" y="256"/>
      <point x="18" y="256" type="curve"/>
      <point x="18" y="186" type="line"/>
      <point x="18" y="186"/>
      <point x="79" y="211"/>
      <point x="116" y="211" type="curve" smooth="yes"/>
      <point x="184" y="211"/>
      <point x="201" y="183"/>
      <point x="272" y="183" type="curve" smooth="yes"/>
      <point x="330" y="183"/>
      <point x="372" y="211"/>
      <point x="372" y="211" type="curve"/>
      <point x="372" y="281" type="line"/>
      <point x="372" y="281"/>
      <point x="311" y="256"/>
      <point x="274" y="256" type="curve" smooth="yes"/>
      <point x="208" y="256"/>
      <point x="189" y="284"/>
    </contour>
  </outline>
</glyph>
<glyph name="notequal" format="1">
  <advance width="390"/>
  <unicode hex="2260"/>
  <outline>
    <contour>
      <point x="348" y="484" type="line"/>
      <point x="272" y="484" type="line"/>
      <point x="232" y="421" type="line"/>
      <point x="18" y="421" type="line"/>
      <point x="18" y="351" type="line"/>
      <point x="189" y="351" type="line"/>
      <point x="126" y="250" type="line"/>
      <point x="18" y="250" type="line"/>
      <point x="18" y="180" type="line"/>
      <point x="82" y="180" type="line"/>
      <point x="42" y="115" type="line"/>
      <point x="118" y="115" type="line"/>
      <point x="158" y="180" type="line"/>
      <point x="372" y="180" type="line"/>
      <point x="372" y="250" type="line"/>
      <point x="202" y="250" type="line"/>
      <point x="265" y="351" type="line"/>
      <point x="372" y="351" type="line"/>
      <point x="372" y="421" type="line"/>
      <point x="308" y="421" type="line"/>
    </contour>
  </outline>
</glyph>
<glyph name="lessequal" format="1">
  <advance width="390"/>
  <unicode hex="2264"/>
  <outline>
    <contour>
      <point x="375" y="494" type="line"/>
      <point x="15" y="334" type="line"/>
      <point x="15" y="259" type="line"/>
      <point x="375" y="99" type="line"/>
      <point x="375" y="182" type="line"/>
      <point x="99" y="297" type="line"/>
      <point x="375" y="411" type="line"/>
    </contour>
    <contour>
      <point x="375" y="70" type="line"/>
      <point x="15" y="70" type="line"/>
      <point x="15" y="0" type="line"/>
      <point x="375" y="0" type="line"/>
    </contour>
  </outline>
</glyph>
<glyph name="greaterequal" format="1">
  <advance width="390"/>
  <unicode hex="2265"/>
  <outline>
    <contour>
      <point x="15" y="494" type="line"/>
      <point x="15" y="411" type="line"/>
      <point x="291" y="297" type="line"/>
      <point x="15" y="182" type="line"/>
      <point x="15" y="99" type="line"/>
      <point x="375" y="259" type="line"/>
      <point x="375" y="334" type="line"/>
    </contour>
    <contour>
      <point x="375" y="70" type="line"/>
      <point x="15" y="70" type="line"/>
      <point x="15" y="0" type="line"/>
      <point x="375" y="0" type="line"/>
    </contour>
  </outline>
</glyph>
<glyph name="fi" format="1">
  <advance width="504"/>
  <unicode hex="FB01"/>
  <outline>
    <contour>
      <point x="260" y="695" type="curve" smooth="yes"/>
      <point x="147" y="695"/>
      <point x="101" y="643"/>
      <point x="100" y="534" type="curve" smooth="yes"/>
      <point x="100" y="488" type="line"/>
      <point x="30" y="488" type="line"/>
      <point x="30" y="418" type="line"/>
      <point x="100" y="418" type="line"/>
      <point x="100" y="0" type="line"/>
      <point x="185" y="0" type="line"/>
      <point x="185" y="418" type="line"/>
      <point x="349" y="418" type="line"/>
      <point x="349" y="0" type="line"/>
      <point x="434" y="0" type="line"/>
      <point x="434" y="488" type="line"/>
      <point x="185" y="488" type="line"/>
      <point x="185" y="549" type="line" smooth="yes"/>
      <point x="185" y="601"/>
      <point x="209" y="625"/>
      <point x="259" y="625" type="curve" smooth="yes"/>
      <point x="291" y="625"/>
      <point x="328" y="618"/>
      <point x="357" y="610" type="curve"/>
      <point x="357" y="684" type="line"/>
      <point x="332" y="689"/>
      <point x="289" y="695"/>
    </contour>
  </outline>
</glyph>
<glyph name="acute.case" format="1">
  <advance width="219"/>
  <outline>
    <contour>
      <point x="75" y="655" type="move" name="_top"/>
    </contour>
    <contour>
      <point x="189" y="829" type="line"/>
      <point x="96" y="829" type="line"/>
      <point x="30" y="710" type="line"/>
      <point x="104" y="710" type="line"/>
    </contour>
  </outline>
</glyph>
<glyph name="caron.alt" format="1">
  <advance width="108"/>
  <outline>
    <contour>
      <point x="74" y="488" type="move" name="_topleft"/>
    </contour>
    <contour>
      <point x="74" y="695" type="curve" smooth="yes"/>
      <point x="47" y="695"/>
      <point x="30" y="680"/>
      <point x="30" y="659" type="curve" smooth="yes"/>
      <point x="30" y="634" type="line" smooth="yes"/>
      <point x="30" y="613"/>
      <point x="38" y="603"/>
      <point x="59" y="596" type="curve"/>
      <point x="42" y="520" type="line"/>
      <point x="93" y="520" type="line"/>
      <point x="115" y="586" type="line" smooth="yes"/>
      <point x="120" y="602"/>
      <point x="123" y="615"/>
      <point x="123" y="633" type="curve" smooth="yes"/>
      <point x="123" y="659" type="line" smooth="yes"/>
      <point x="123" y="680"/>
      <point x="109" y="695"/>
    </contour>
  </outline>
</glyph>
<glyph name="circumflex.case" format="1">
  <advance width="340"/>
  <outline>
    <contour>
      <point x="170" y="655" type="move" name="_top"/>
    </contour>
    <contour>
      <point x="170" y="840" type="line"/>
      <point x="30" y="779" type="line"/>
      <point x="30" y="711" type="line"/>
      <point x="170" y="760" type="line"/>
      <point x="310" y="711" type="line"/>
      <point x="310" y="779" type="line"/>
    </contour>
  </outline>
</glyph>
<glyph name="commaaccentcomb.case" format="1">
  <advance width="153"/>
  <outline>
    <contour>
      <point x="77" y="0" type="move" name="_bottom"/>
    </contour>
    <contour>
      <point x="74" y="-56" type="curve" smooth="yes"/>
      <point x="47" y="-56"/>
      <point x="30" y="-71"/>
      <point x="30" y="-92" type="curve" smooth="yes"/>
      <point x="30" y="-117" type="line" smooth="yes"/>
      <point x="30" y="-138"/>
      <point x="38" y="-148"/>
      <point x="59" y="-155" type="curve"/>
      <point x="42" y="-231" type="line"/>
      <point x="93" y="-231" type="line"/>
      <point x="115" y="-165" type="line" smooth="yes"/>
      <point x="120" y="-149"/>
      <point x="123" y="-136"/>
      <point x="123" y="-118" type="curve" smooth="yes"/>
      <point x="123" y="-92" type="line" smooth="yes"/>
      <point x="123" y="-71"/>
      <point x="109" y="-56"/>
    </contour>
  </outline>
</glyph>
<glyph name="tilde.case" format="1">
  <advance width="340"/>
  <outline>
    <contour>
      <point x="170" y="655" type="move" name="_top"/>
    </contour>
    <contour>
      <point x="310" y="810" type="line"/>
      <point x="310" y="810"/>
      <point x="265" y="785"/>
      <point x="232" y="785" type="curve" smooth="yes"/>
      <point x="194" y="785"/>
      <point x="164" y="810"/>
      <point x="110" y="810" type="curve" smooth="yes"/>
      <point x="64" y="810"/>
      <point x="30" y="780"/>
      <point x="30" y="780" type="curve"/>
      <point x="30" y="710" type="line"/>
      <point x="30" y="710"/>
      <point x="75" y="735"/>
      <point x="108" y="735" type="curve" smooth="yes"/>
      <point x="149" y="735"/>
      <point x="186" y="710"/>
      <point x="230" y="710" type="curve" smooth="yes"/>
      <point x="276" y="710"/>
      <point x="310" y="740"/>
      <point x="310" y="740" type="curve"/>
    </contour>
  </outline>
</glyph>
